<svg width="26" height="26" viewBox="0 0 26 26" fill="none" xmlns="http://www.w3.org/2000/svg">
<path d="M13 13.0001C15.9916 13.0001 18.4167 10.575 18.4167 7.58341C18.4167 4.59187 15.9916 2.16675 13 2.16675C10.0085 2.16675 7.58337 4.59187 7.58337 7.58341C7.58337 10.575 10.0085 13.0001 13 13.0001Z" stroke="white" stroke-width="2"/>
<path d="M18.4167 23.8335H5.70486C5.39761 23.8336 5.09385 23.7683 4.81376 23.642C4.53366 23.5157 4.28363 23.3313 4.08027 23.1009C3.8769 22.8706 3.72484 22.5997 3.63418 22.3061C3.54352 22.0125 3.51634 21.703 3.55444 21.3982L3.97694 18.0138C4.0752 17.2276 4.45731 16.5043 5.05143 15.98C5.64554 15.4557 6.41073 15.1665 7.20311 15.1668H7.58336M20.5834 14.0835V20.5835M17.3334 17.3335H23.8334" stroke="white" stroke-width="2" stroke-linecap="round" stroke-linejoin="round"/>
</svg>
