<svg width="108" height="60" viewBox="0 0 108 60" fill="none" xmlns="http://www.w3.org/2000/svg">
<path d="M102 15C103.656 15 105.07 15.5859 106.242 16.7578C107.414 17.9297 108 19.3438 108 21V39C108 40.6562 107.414 42.0703 106.242 43.2422C105.07 44.4141 103.656 45 102 45V52.5C102 54.5625 101.266 56.3281 99.7969 57.7969C98.3281 59.2656 96.5625 60 94.5 60H7.5C5.4375 60 3.67188 59.2656 2.20312 57.7969C0.734375 56.3281 0 54.5625 0 52.5V7.5C0 5.4375 0.734375 3.67188 2.20312 2.20312C3.67188 0.734375 5.4375 0 7.5 0H94.5C96.5625 0 98.3281 0.734375 99.7969 2.20312C101.266 3.67188 102 5.4375 102 7.5V15Z" fill="#C4C4C4"/>
<path d="M5.93994 7.93994C5.93994 6.83537 6.83537 5.93994 7.93994 5.93994H57.7799V53.9999H7.93994C6.83537 53.9999 5.93994 53.1045 5.93994 51.9999V7.93994Z" fill="#54C568"/>
<rect x="57.78" y="5.93994" width="29.16" height="48.06" fill="#FDEA3D"/>
<path d="M86.9399 5.93994H94.1199C95.2245 5.93994 96.1199 6.83537 96.1199 7.93994V51.9999C96.1199 53.1045 95.2245 53.9999 94.1199 53.9999H86.9399V5.93994Z" fill="#FF0027"/>
</svg>
