<svg width="395" height="243" viewBox="0 0 395 243" fill="none" xmlns="http://www.w3.org/2000/svg">
<path d="M25.1598 228.623H391.284" stroke="black" stroke-opacity="0.6"/>
<path d="M25.1598 172.695H391.284" stroke="#CCCCCC" stroke-dasharray="4 2"/>
<path d="M25.1598 116.766H391.284" stroke="#CCCCCC" stroke-dasharray="4 2"/>
<path d="M25.1598 60.8376H391.284" stroke="#CCCCCC" stroke-dasharray="4 2"/>
<path d="M25.4526 4.55835V228.974" stroke="black" stroke-opacity="0.6"/>
<path d="M86.3757 3.55835V227.974" stroke="#CCCCCC" stroke-dasharray="4 2"/>
<path d="M147.299 3.55835V227.974" stroke="#CCCCCC" stroke-dasharray="4 2"/>
<path d="M208.222 3.55835V227.974" stroke="#CCCCCC" stroke-dasharray="4 2"/>
<path d="M269.145 3.55835V227.974" stroke="#CCCCCC" stroke-dasharray="4 2"/>
<path d="M330.068 3.55835V227.974" stroke="#CCCCCC" stroke-dasharray="4 2"/>
<path d="M14.894 229.291V230.267C14.894 230.791 14.8472 231.233 14.7534 231.594C14.6597 231.954 14.5249 232.244 14.3491 232.464C14.1733 232.684 13.9609 232.843 13.7119 232.943C13.4658 233.04 13.1875 233.088 12.877 233.088C12.6309 233.088 12.4038 233.057 12.1958 232.996C11.9878 232.934 11.8003 232.836 11.6333 232.701C11.4692 232.563 11.3286 232.385 11.2114 232.165C11.0942 231.945 11.0049 231.679 10.9434 231.365C10.8818 231.052 10.8511 230.686 10.8511 230.267V229.291C10.8511 228.767 10.8979 228.327 10.9917 227.973C11.0884 227.618 11.2246 227.334 11.4004 227.12C11.5762 226.903 11.7871 226.748 12.0332 226.654C12.2822 226.561 12.5605 226.514 12.8682 226.514C13.1172 226.514 13.3457 226.544 13.5537 226.606C13.7646 226.665 13.9521 226.76 14.1162 226.892C14.2803 227.021 14.4194 227.193 14.5337 227.41C14.6509 227.624 14.7402 227.886 14.8018 228.197C14.8633 228.507 14.894 228.872 14.894 229.291ZM14.0767 230.398V229.155C14.0767 228.868 14.0591 228.616 14.0239 228.399C13.9917 228.179 13.9434 227.992 13.8789 227.836C13.8145 227.681 13.7324 227.555 13.6328 227.458C13.5361 227.362 13.4233 227.292 13.2944 227.248C13.1685 227.201 13.0264 227.177 12.8682 227.177C12.6748 227.177 12.5034 227.214 12.354 227.287C12.2046 227.357 12.0786 227.47 11.9761 227.625C11.8765 227.781 11.8003 227.984 11.7476 228.236C11.6948 228.488 11.6685 228.794 11.6685 229.155V230.398C11.6685 230.686 11.6846 230.939 11.7168 231.159C11.752 231.378 11.8032 231.569 11.8706 231.73C11.938 231.888 12.02 232.019 12.1167 232.121C12.2134 232.224 12.3247 232.3 12.4507 232.35C12.5796 232.396 12.7217 232.42 12.877 232.42C13.0762 232.42 13.2505 232.382 13.3999 232.306C13.5493 232.229 13.6738 232.111 13.7734 231.95C13.876 231.786 13.9521 231.576 14.002 231.321C14.0518 231.063 14.0767 230.756 14.0767 230.398ZM15.8696 228.17V227.832C15.8696 227.589 15.9224 227.368 16.0278 227.168C16.1333 226.969 16.2842 226.81 16.4805 226.689C16.6768 226.569 16.9097 226.509 17.1792 226.509C17.4546 226.509 17.689 226.569 17.8823 226.689C18.0786 226.81 18.2295 226.969 18.335 227.168C18.4404 227.368 18.4932 227.589 18.4932 227.832V228.17C18.4932 228.408 18.4404 228.626 18.335 228.825C18.2324 229.024 18.083 229.184 17.8867 229.304C17.6934 229.424 17.4604 229.484 17.188 229.484C16.9155 229.484 16.6797 229.424 16.4805 229.304C16.2842 229.184 16.1333 229.024 16.0278 228.825C15.9224 228.626 15.8696 228.408 15.8696 228.17ZM16.4805 227.832V228.17C16.4805 228.305 16.5054 228.433 16.5552 228.553C16.6079 228.673 16.687 228.771 16.7925 228.847C16.8979 228.92 17.0298 228.957 17.188 228.957C17.3462 228.957 17.4766 228.92 17.5791 228.847C17.6816 228.771 17.7578 228.673 17.8076 228.553C17.8574 228.433 17.8823 228.305 17.8823 228.17V227.832C17.8823 227.694 17.856 227.565 17.8032 227.445C17.7534 227.322 17.6758 227.224 17.5703 227.151C17.4678 227.075 17.3374 227.037 17.1792 227.037C17.0239 227.037 16.8936 227.075 16.7881 227.151C16.6855 227.224 16.6079 227.322 16.5552 227.445C16.5054 227.565 16.4805 227.694 16.4805 227.832ZM18.9854 231.774V231.431C18.9854 231.191 19.0381 230.971 19.1436 230.772C19.249 230.573 19.3999 230.413 19.5962 230.293C19.7925 230.173 20.0254 230.113 20.2949 230.113C20.5703 230.113 20.8047 230.173 20.998 230.293C21.1943 230.413 21.3452 230.573 21.4507 230.772C21.5562 230.971 21.6089 231.191 21.6089 231.431V231.774C21.6089 232.014 21.5562 232.234 21.4507 232.433C21.3481 232.632 21.1987 232.792 21.0024 232.912C20.8091 233.032 20.5762 233.092 20.3037 233.092C20.0312 233.092 19.7969 233.032 19.6006 232.912C19.4043 232.792 19.252 232.632 19.1436 232.433C19.0381 232.234 18.9854 232.014 18.9854 231.774ZM19.5962 231.431V231.774C19.5962 231.909 19.6211 232.038 19.6709 232.161C19.7236 232.281 19.8027 232.379 19.9082 232.455C20.0137 232.528 20.1455 232.565 20.3037 232.565C20.4619 232.565 20.5923 232.528 20.6948 232.455C20.8003 232.379 20.8779 232.281 20.9277 232.161C20.9775 232.041 21.0024 231.912 21.0024 231.774V231.431C21.0024 231.293 20.9761 231.165 20.9233 231.044C20.8735 230.924 20.7959 230.828 20.6904 230.754C20.5879 230.678 20.4561 230.64 20.2949 230.64C20.1396 230.64 20.0093 230.678 19.9038 230.754C19.8013 230.828 19.7236 230.924 19.6709 231.044C19.6211 231.165 19.5962 231.293 19.5962 231.431ZM20.4971 227.511L17.3726 232.512L16.9155 232.222L20.04 227.221L20.4971 227.511Z" fill="#333333"/>
<path d="M10.0073 176.332V177H5.81934V176.416L7.91553 174.082C8.17334 173.795 8.37256 173.552 8.51318 173.353C8.65674 173.15 8.75635 172.97 8.81201 172.812C8.87061 172.651 8.8999 172.487 8.8999 172.32C8.8999 172.109 8.85596 171.918 8.76807 171.749C8.68311 171.576 8.55713 171.438 8.39014 171.335C8.22314 171.233 8.021 171.182 7.78369 171.182C7.49951 171.182 7.26221 171.237 7.07178 171.349C6.88428 171.457 6.74365 171.609 6.6499 171.806C6.55615 172.002 6.50928 172.228 6.50928 172.482H5.69629C5.69629 172.122 5.77539 171.792 5.93359 171.494C6.0918 171.195 6.32617 170.958 6.63672 170.782C6.94727 170.603 7.32959 170.514 7.78369 170.514C8.18799 170.514 8.53369 170.585 8.8208 170.729C9.10791 170.87 9.32764 171.069 9.47998 171.327C9.63525 171.582 9.71289 171.88 9.71289 172.223C9.71289 172.411 9.68066 172.601 9.61621 172.794C9.55469 172.985 9.46826 173.175 9.35693 173.366C9.24854 173.556 9.12109 173.744 8.97461 173.928C8.83105 174.113 8.67725 174.294 8.51318 174.473L6.79932 176.332H10.0073ZM11.9058 173.955L11.2554 173.788L11.5762 170.602H14.8589V171.353H12.2661L12.0728 173.093C12.1899 173.026 12.3379 172.963 12.5166 172.904C12.6982 172.846 12.9062 172.816 13.1406 172.816C13.4365 172.816 13.7017 172.868 13.936 172.97C14.1704 173.07 14.3696 173.213 14.5337 173.401C14.7007 173.588 14.8281 173.814 14.916 174.078C15.0039 174.341 15.0479 174.636 15.0479 174.961C15.0479 175.269 15.0054 175.551 14.9204 175.809C14.8384 176.067 14.7139 176.292 14.5469 176.486C14.3799 176.676 14.1689 176.824 13.9141 176.93C13.6621 177.035 13.3647 177.088 13.022 177.088C12.7642 177.088 12.5195 177.053 12.2881 176.982C12.0596 176.909 11.8545 176.799 11.6729 176.653C11.4941 176.503 11.3477 176.319 11.2334 176.099C11.1221 175.876 11.0518 175.616 11.0225 175.317H11.7959C11.8311 175.557 11.9014 175.759 12.0068 175.923C12.1123 176.087 12.25 176.212 12.4199 176.297C12.5928 176.379 12.7935 176.42 13.022 176.42C13.2153 176.42 13.3867 176.386 13.5361 176.319C13.6855 176.251 13.8115 176.155 13.9141 176.029C14.0166 175.903 14.0942 175.75 14.147 175.572C14.2026 175.393 14.2305 175.192 14.2305 174.97C14.2305 174.768 14.2026 174.58 14.147 174.407C14.0913 174.234 14.0078 174.083 13.8965 173.955C13.7881 173.826 13.6548 173.726 13.4966 173.656C13.3384 173.583 13.1567 173.546 12.9517 173.546C12.6792 173.546 12.4727 173.583 12.332 173.656C12.1943 173.729 12.0522 173.829 11.9058 173.955ZM15.8696 172.17V171.832C15.8696 171.589 15.9224 171.368 16.0278 171.168C16.1333 170.969 16.2842 170.81 16.4805 170.689C16.6768 170.569 16.9097 170.509 17.1792 170.509C17.4546 170.509 17.689 170.569 17.8823 170.689C18.0786 170.81 18.2295 170.969 18.335 171.168C18.4404 171.368 18.4932 171.589 18.4932 171.832V172.17C18.4932 172.408 18.4404 172.626 18.335 172.825C18.2324 173.024 18.083 173.184 17.8867 173.304C17.6934 173.424 17.4604 173.484 17.188 173.484C16.9155 173.484 16.6797 173.424 16.4805 173.304C16.2842 173.184 16.1333 173.024 16.0278 172.825C15.9224 172.626 15.8696 172.408 15.8696 172.17ZM16.4805 171.832V172.17C16.4805 172.305 16.5054 172.433 16.5552 172.553C16.6079 172.673 16.687 172.771 16.7925 172.847C16.8979 172.92 17.0298 172.957 17.188 172.957C17.3462 172.957 17.4766 172.92 17.5791 172.847C17.6816 172.771 17.7578 172.673 17.8076 172.553C17.8574 172.433 17.8823 172.305 17.8823 172.17V171.832C17.8823 171.694 17.856 171.565 17.8032 171.445C17.7534 171.322 17.6758 171.224 17.5703 171.151C17.4678 171.075 17.3374 171.037 17.1792 171.037C17.0239 171.037 16.8936 171.075 16.7881 171.151C16.6855 171.224 16.6079 171.322 16.5552 171.445C16.5054 171.565 16.4805 171.694 16.4805 171.832ZM18.9854 175.774V175.431C18.9854 175.191 19.0381 174.971 19.1436 174.772C19.249 174.573 19.3999 174.413 19.5962 174.293C19.7925 174.173 20.0254 174.113 20.2949 174.113C20.5703 174.113 20.8047 174.173 20.998 174.293C21.1943 174.413 21.3452 174.573 21.4507 174.772C21.5562 174.971 21.6089 175.191 21.6089 175.431V175.774C21.6089 176.014 21.5562 176.234 21.4507 176.433C21.3481 176.632 21.1987 176.792 21.0024 176.912C20.8091 177.032 20.5762 177.092 20.3037 177.092C20.0312 177.092 19.7969 177.032 19.6006 176.912C19.4043 176.792 19.252 176.632 19.1436 176.433C19.0381 176.234 18.9854 176.014 18.9854 175.774ZM19.5962 175.431V175.774C19.5962 175.909 19.6211 176.038 19.6709 176.161C19.7236 176.281 19.8027 176.379 19.9082 176.455C20.0137 176.528 20.1455 176.565 20.3037 176.565C20.4619 176.565 20.5923 176.528 20.6948 176.455C20.8003 176.379 20.8779 176.281 20.9277 176.161C20.9775 176.041 21.0024 175.912 21.0024 175.774V175.431C21.0024 175.293 20.9761 175.165 20.9233 175.044C20.8735 174.924 20.7959 174.828 20.6904 174.754C20.5879 174.678 20.4561 174.64 20.2949 174.64C20.1396 174.64 20.0093 174.678 19.9038 174.754C19.8013 174.828 19.7236 174.924 19.6709 175.044C19.6211 175.165 19.5962 175.293 19.5962 175.431ZM20.4971 171.511L17.3726 176.512L16.9155 176.222L20.04 171.221L20.4971 171.511Z" fill="#333333"/>
<path d="M6.84326 117.955L6.19287 117.788L6.51367 114.602H9.79639V115.353H7.20361L7.01025 117.093C7.12744 117.026 7.27539 116.963 7.4541 116.904C7.63574 116.846 7.84375 116.816 8.07812 116.816C8.37402 116.816 8.63916 116.868 8.87354 116.97C9.10791 117.07 9.30713 117.213 9.47119 117.401C9.63818 117.588 9.76562 117.814 9.85352 118.078C9.94141 118.341 9.98535 118.636 9.98535 118.961C9.98535 119.269 9.94287 119.551 9.85791 119.809C9.77588 120.067 9.65137 120.292 9.48438 120.486C9.31738 120.676 9.10645 120.824 8.85156 120.93C8.59961 121.035 8.30225 121.088 7.95947 121.088C7.70166 121.088 7.45703 121.053 7.22559 120.982C6.99707 120.909 6.79199 120.799 6.61035 120.653C6.43164 120.503 6.28516 120.319 6.1709 120.099C6.05957 119.876 5.98926 119.616 5.95996 119.317H6.7334C6.76855 119.557 6.83887 119.759 6.94434 119.923C7.0498 120.087 7.1875 120.212 7.35742 120.297C7.53027 120.379 7.73096 120.42 7.95947 120.42C8.15283 120.42 8.32422 120.386 8.47363 120.319C8.62305 120.251 8.74902 120.155 8.85156 120.029C8.9541 119.903 9.03174 119.75 9.08447 119.572C9.14014 119.393 9.16797 119.192 9.16797 118.97C9.16797 118.768 9.14014 118.58 9.08447 118.407C9.02881 118.234 8.94531 118.083 8.83398 117.955C8.72559 117.826 8.59229 117.726 8.43408 117.656C8.27588 117.583 8.09424 117.546 7.88916 117.546C7.6167 117.546 7.41016 117.583 7.26953 117.656C7.13184 117.729 6.98975 117.829 6.84326 117.955ZM14.894 117.291V118.267C14.894 118.791 14.8472 119.233 14.7534 119.594C14.6597 119.954 14.5249 120.244 14.3491 120.464C14.1733 120.684 13.9609 120.843 13.7119 120.943C13.4658 121.04 13.1875 121.088 12.877 121.088C12.6309 121.088 12.4038 121.057 12.1958 120.996C11.9878 120.934 11.8003 120.836 11.6333 120.701C11.4692 120.563 11.3286 120.385 11.2114 120.165C11.0942 119.945 11.0049 119.679 10.9434 119.365C10.8818 119.052 10.8511 118.686 10.8511 118.267V117.291C10.8511 116.767 10.8979 116.327 10.9917 115.973C11.0884 115.618 11.2246 115.334 11.4004 115.12C11.5762 114.903 11.7871 114.748 12.0332 114.654C12.2822 114.561 12.5605 114.514 12.8682 114.514C13.1172 114.514 13.3457 114.544 13.5537 114.606C13.7646 114.665 13.9521 114.76 14.1162 114.892C14.2803 115.021 14.4194 115.193 14.5337 115.41C14.6509 115.624 14.7402 115.886 14.8018 116.197C14.8633 116.507 14.894 116.872 14.894 117.291ZM14.0767 118.398V117.155C14.0767 116.868 14.0591 116.616 14.0239 116.399C13.9917 116.179 13.9434 115.992 13.8789 115.836C13.8145 115.681 13.7324 115.555 13.6328 115.458C13.5361 115.362 13.4233 115.292 13.2944 115.248C13.1685 115.201 13.0264 115.177 12.8682 115.177C12.6748 115.177 12.5034 115.214 12.354 115.287C12.2046 115.357 12.0786 115.47 11.9761 115.625C11.8765 115.781 11.8003 115.984 11.7476 116.236C11.6948 116.488 11.6685 116.794 11.6685 117.155V118.398C11.6685 118.686 11.6846 118.939 11.7168 119.159C11.752 119.378 11.8032 119.569 11.8706 119.73C11.938 119.888 12.02 120.019 12.1167 120.121C12.2134 120.224 12.3247 120.3 12.4507 120.35C12.5796 120.396 12.7217 120.42 12.877 120.42C13.0762 120.42 13.2505 120.382 13.3999 120.306C13.5493 120.229 13.6738 120.111 13.7734 119.95C13.876 119.786 13.9521 119.576 14.002 119.321C14.0518 119.063 14.0767 118.756 14.0767 118.398ZM15.8696 116.17V115.832C15.8696 115.589 15.9224 115.368 16.0278 115.168C16.1333 114.969 16.2842 114.81 16.4805 114.689C16.6768 114.569 16.9097 114.509 17.1792 114.509C17.4546 114.509 17.689 114.569 17.8823 114.689C18.0786 114.81 18.2295 114.969 18.335 115.168C18.4404 115.368 18.4932 115.589 18.4932 115.832V116.17C18.4932 116.408 18.4404 116.626 18.335 116.825C18.2324 117.024 18.083 117.184 17.8867 117.304C17.6934 117.424 17.4604 117.484 17.188 117.484C16.9155 117.484 16.6797 117.424 16.4805 117.304C16.2842 117.184 16.1333 117.024 16.0278 116.825C15.9224 116.626 15.8696 116.408 15.8696 116.17ZM16.4805 115.832V116.17C16.4805 116.305 16.5054 116.433 16.5552 116.553C16.6079 116.673 16.687 116.771 16.7925 116.847C16.8979 116.92 17.0298 116.957 17.188 116.957C17.3462 116.957 17.4766 116.92 17.5791 116.847C17.6816 116.771 17.7578 116.673 17.8076 116.553C17.8574 116.433 17.8823 116.305 17.8823 116.17V115.832C17.8823 115.694 17.856 115.565 17.8032 115.445C17.7534 115.322 17.6758 115.224 17.5703 115.151C17.4678 115.075 17.3374 115.037 17.1792 115.037C17.0239 115.037 16.8936 115.075 16.7881 115.151C16.6855 115.224 16.6079 115.322 16.5552 115.445C16.5054 115.565 16.4805 115.694 16.4805 115.832ZM18.9854 119.774V119.431C18.9854 119.191 19.0381 118.971 19.1436 118.772C19.249 118.573 19.3999 118.413 19.5962 118.293C19.7925 118.173 20.0254 118.113 20.2949 118.113C20.5703 118.113 20.8047 118.173 20.998 118.293C21.1943 118.413 21.3452 118.573 21.4507 118.772C21.5562 118.971 21.6089 119.191 21.6089 119.431V119.774C21.6089 120.014 21.5562 120.234 21.4507 120.433C21.3481 120.632 21.1987 120.792 21.0024 120.912C20.8091 121.032 20.5762 121.092 20.3037 121.092C20.0312 121.092 19.7969 121.032 19.6006 120.912C19.4043 120.792 19.252 120.632 19.1436 120.433C19.0381 120.234 18.9854 120.014 18.9854 119.774ZM19.5962 119.431V119.774C19.5962 119.909 19.6211 120.038 19.6709 120.161C19.7236 120.281 19.8027 120.379 19.9082 120.455C20.0137 120.528 20.1455 120.565 20.3037 120.565C20.4619 120.565 20.5923 120.528 20.6948 120.455C20.8003 120.379 20.8779 120.281 20.9277 120.161C20.9775 120.041 21.0024 119.912 21.0024 119.774V119.431C21.0024 119.293 20.9761 119.165 20.9233 119.044C20.8735 118.924 20.7959 118.828 20.6904 118.754C20.5879 118.678 20.4561 118.64 20.2949 118.64C20.1396 118.64 20.0093 118.678 19.9038 118.754C19.8013 118.828 19.7236 118.924 19.6709 119.044C19.6211 119.165 19.5962 119.293 19.5962 119.431ZM20.4971 115.511L17.3726 120.512L16.9155 120.222L20.04 115.221L20.4971 115.511Z" fill="#333333"/>
<path d="M9.9502 58.6016V59.0586L7.30029 65H6.44336L9.08887 59.2695H5.62598V58.6016H9.9502ZM11.9058 61.9546L11.2554 61.7876L11.5762 58.6016H14.8589V59.353H12.2661L12.0728 61.0933C12.1899 61.0259 12.3379 60.9629 12.5166 60.9043C12.6982 60.8457 12.9062 60.8164 13.1406 60.8164C13.4365 60.8164 13.7017 60.8677 13.936 60.9702C14.1704 61.0698 14.3696 61.2134 14.5337 61.4009C14.7007 61.5884 14.8281 61.814 14.916 62.0776C15.0039 62.3413 15.0479 62.6357 15.0479 62.9609C15.0479 63.2686 15.0054 63.5513 14.9204 63.8091C14.8384 64.0669 14.7139 64.2925 14.5469 64.4858C14.3799 64.6763 14.1689 64.8242 13.9141 64.9297C13.6621 65.0352 13.3647 65.0879 13.022 65.0879C12.7642 65.0879 12.5195 65.0527 12.2881 64.9824C12.0596 64.9092 11.8545 64.7993 11.6729 64.6528C11.4941 64.5034 11.3477 64.3188 11.2334 64.0991C11.1221 63.8765 11.0518 63.6157 11.0225 63.3169H11.7959C11.8311 63.5571 11.9014 63.7593 12.0068 63.9233C12.1123 64.0874 12.25 64.2119 12.4199 64.2969C12.5928 64.3789 12.7935 64.4199 13.022 64.4199C13.2153 64.4199 13.3867 64.3862 13.5361 64.3188C13.6855 64.2515 13.8115 64.1548 13.9141 64.0288C14.0166 63.9028 14.0942 63.7505 14.147 63.5718C14.2026 63.3931 14.2305 63.1924 14.2305 62.9697C14.2305 62.7676 14.2026 62.5801 14.147 62.4072C14.0913 62.2344 14.0078 62.0835 13.8965 61.9546C13.7881 61.8257 13.6548 61.7261 13.4966 61.6558C13.3384 61.5825 13.1567 61.5459 12.9517 61.5459C12.6792 61.5459 12.4727 61.5825 12.332 61.6558C12.1943 61.729 12.0522 61.8286 11.9058 61.9546ZM15.8696 60.1704V59.832C15.8696 59.5889 15.9224 59.3677 16.0278 59.1685C16.1333 58.9692 16.2842 58.8096 16.4805 58.6895C16.6768 58.5693 16.9097 58.5093 17.1792 58.5093C17.4546 58.5093 17.689 58.5693 17.8823 58.6895C18.0786 58.8096 18.2295 58.9692 18.335 59.1685C18.4404 59.3677 18.4932 59.5889 18.4932 59.832V60.1704C18.4932 60.4077 18.4404 60.626 18.335 60.8252C18.2324 61.0244 18.083 61.1841 17.8867 61.3042C17.6934 61.4243 17.4604 61.4844 17.188 61.4844C16.9155 61.4844 16.6797 61.4243 16.4805 61.3042C16.2842 61.1841 16.1333 61.0244 16.0278 60.8252C15.9224 60.626 15.8696 60.4077 15.8696 60.1704ZM16.4805 59.832V60.1704C16.4805 60.3052 16.5054 60.4326 16.5552 60.5527C16.6079 60.6729 16.687 60.771 16.7925 60.8472C16.8979 60.9204 17.0298 60.957 17.188 60.957C17.3462 60.957 17.4766 60.9204 17.5791 60.8472C17.6816 60.771 17.7578 60.6729 17.8076 60.5527C17.8574 60.4326 17.8823 60.3052 17.8823 60.1704V59.832C17.8823 59.6943 17.856 59.5654 17.8032 59.4453C17.7534 59.3223 17.6758 59.2241 17.5703 59.1509C17.4678 59.0747 17.3374 59.0366 17.1792 59.0366C17.0239 59.0366 16.8936 59.0747 16.7881 59.1509C16.6855 59.2241 16.6079 59.3223 16.5552 59.4453C16.5054 59.5654 16.4805 59.6943 16.4805 59.832ZM18.9854 63.7739V63.4312C18.9854 63.1909 19.0381 62.9712 19.1436 62.772C19.249 62.5728 19.3999 62.4131 19.5962 62.293C19.7925 62.1729 20.0254 62.1128 20.2949 62.1128C20.5703 62.1128 20.8047 62.1729 20.998 62.293C21.1943 62.4131 21.3452 62.5728 21.4507 62.772C21.5562 62.9712 21.6089 63.1909 21.6089 63.4312V63.7739C21.6089 64.0142 21.5562 64.2339 21.4507 64.4331C21.3481 64.6323 21.1987 64.792 21.0024 64.9121C20.8091 65.0322 20.5762 65.0923 20.3037 65.0923C20.0312 65.0923 19.7969 65.0322 19.6006 64.9121C19.4043 64.792 19.252 64.6323 19.1436 64.4331C19.0381 64.2339 18.9854 64.0142 18.9854 63.7739ZM19.5962 63.4312V63.7739C19.5962 63.9087 19.6211 64.0376 19.6709 64.1606C19.7236 64.2808 19.8027 64.3789 19.9082 64.4551C20.0137 64.5283 20.1455 64.5649 20.3037 64.5649C20.4619 64.5649 20.5923 64.5283 20.6948 64.4551C20.8003 64.3789 20.8779 64.2808 20.9277 64.1606C20.9775 64.0405 21.0024 63.9116 21.0024 63.7739V63.4312C21.0024 63.2935 20.9761 63.1646 20.9233 63.0444C20.8735 62.9243 20.7959 62.8276 20.6904 62.7544C20.5879 62.6782 20.4561 62.6401 20.2949 62.6401C20.1396 62.6401 20.0093 62.6782 19.9038 62.7544C19.8013 62.8276 19.7236 62.9243 19.6709 63.0444C19.6211 63.1646 19.5962 63.2935 19.5962 63.4312ZM20.4971 59.5112L17.3726 64.5122L16.9155 64.2222L20.04 59.2212L20.4971 59.5112Z" fill="#333333"/>
<path d="M3.42432 2.56641V9H2.61133V3.58154L0.972168 4.1792V3.44531L3.29688 2.56641H3.42432ZM9.83154 5.29102V6.2666C9.83154 6.79102 9.78467 7.2334 9.69092 7.59375C9.59717 7.9541 9.4624 8.24414 9.28662 8.46387C9.11084 8.68359 8.89844 8.84326 8.64941 8.94287C8.40332 9.03955 8.125 9.08789 7.81445 9.08789C7.56836 9.08789 7.34131 9.05713 7.1333 8.99561C6.92529 8.93408 6.73779 8.83594 6.5708 8.70117C6.40674 8.56348 6.26611 8.38477 6.14893 8.16504C6.03174 7.94531 5.94238 7.67871 5.88086 7.36523C5.81934 7.05176 5.78857 6.68555 5.78857 6.2666V5.29102C5.78857 4.7666 5.83545 4.32715 5.9292 3.97266C6.02588 3.61816 6.16211 3.33398 6.33789 3.12012C6.51367 2.90332 6.72461 2.74805 6.9707 2.6543C7.21973 2.56055 7.49805 2.51367 7.80566 2.51367C8.05469 2.51367 8.2832 2.54443 8.49121 2.60596C8.70215 2.66455 8.88965 2.75977 9.05371 2.8916C9.21777 3.02051 9.35693 3.19336 9.47119 3.41016C9.58838 3.62402 9.67773 3.88623 9.73926 4.19678C9.80078 4.50732 9.83154 4.87207 9.83154 5.29102ZM9.01416 6.39844V5.15479C9.01416 4.86768 8.99658 4.61572 8.96143 4.39893C8.9292 4.1792 8.88086 3.9917 8.81641 3.83643C8.75195 3.68115 8.66992 3.55518 8.57031 3.4585C8.47363 3.36182 8.36084 3.2915 8.23193 3.24756C8.10596 3.20068 7.96387 3.17725 7.80566 3.17725C7.6123 3.17725 7.44092 3.21387 7.2915 3.28711C7.14209 3.35742 7.01611 3.47021 6.91357 3.62549C6.81396 3.78076 6.73779 3.98438 6.68506 4.23633C6.63232 4.48828 6.60596 4.79443 6.60596 5.15479V6.39844C6.60596 6.68555 6.62207 6.93896 6.6543 7.15869C6.68945 7.37842 6.74072 7.56885 6.80811 7.72998C6.87549 7.88818 6.95752 8.01855 7.0542 8.12109C7.15088 8.22363 7.26221 8.2998 7.38818 8.34961C7.51709 8.39648 7.65918 8.41992 7.81445 8.41992C8.01367 8.41992 8.18799 8.38184 8.3374 8.30566C8.48682 8.22949 8.61133 8.11084 8.71094 7.94971C8.81348 7.78564 8.88965 7.57617 8.93945 7.32129C8.98926 7.06348 9.01416 6.75586 9.01416 6.39844ZM14.894 5.29102V6.2666C14.894 6.79102 14.8472 7.2334 14.7534 7.59375C14.6597 7.9541 14.5249 8.24414 14.3491 8.46387C14.1733 8.68359 13.9609 8.84326 13.7119 8.94287C13.4658 9.03955 13.1875 9.08789 12.877 9.08789C12.6309 9.08789 12.4038 9.05713 12.1958 8.99561C11.9878 8.93408 11.8003 8.83594 11.6333 8.70117C11.4692 8.56348 11.3286 8.38477 11.2114 8.16504C11.0942 7.94531 11.0049 7.67871 10.9434 7.36523C10.8818 7.05176 10.8511 6.68555 10.8511 6.2666V5.29102C10.8511 4.7666 10.8979 4.32715 10.9917 3.97266C11.0884 3.61816 11.2246 3.33398 11.4004 3.12012C11.5762 2.90332 11.7871 2.74805 12.0332 2.6543C12.2822 2.56055 12.5605 2.51367 12.8682 2.51367C13.1172 2.51367 13.3457 2.54443 13.5537 2.60596C13.7646 2.66455 13.9521 2.75977 14.1162 2.8916C14.2803 3.02051 14.4194 3.19336 14.5337 3.41016C14.6509 3.62402 14.7402 3.88623 14.8018 4.19678C14.8633 4.50732 14.894 4.87207 14.894 5.29102ZM14.0767 6.39844V5.15479C14.0767 4.86768 14.0591 4.61572 14.0239 4.39893C13.9917 4.1792 13.9434 3.9917 13.8789 3.83643C13.8145 3.68115 13.7324 3.55518 13.6328 3.4585C13.5361 3.36182 13.4233 3.2915 13.2944 3.24756C13.1685 3.20068 13.0264 3.17725 12.8682 3.17725C12.6748 3.17725 12.5034 3.21387 12.354 3.28711C12.2046 3.35742 12.0786 3.47021 11.9761 3.62549C11.8765 3.78076 11.8003 3.98438 11.7476 4.23633C11.6948 4.48828 11.6685 4.79443 11.6685 5.15479V6.39844C11.6685 6.68555 11.6846 6.93896 11.7168 7.15869C11.752 7.37842 11.8032 7.56885 11.8706 7.72998C11.938 7.88818 12.02 8.01855 12.1167 8.12109C12.2134 8.22363 12.3247 8.2998 12.4507 8.34961C12.5796 8.39648 12.7217 8.41992 12.877 8.41992C13.0762 8.41992 13.2505 8.38184 13.3999 8.30566C13.5493 8.22949 13.6738 8.11084 13.7734 7.94971C13.876 7.78564 13.9521 7.57617 14.002 7.32129C14.0518 7.06348 14.0767 6.75586 14.0767 6.39844ZM15.8696 4.17041V3.83203C15.8696 3.58887 15.9224 3.36768 16.0278 3.16846C16.1333 2.96924 16.2842 2.80957 16.4805 2.68945C16.6768 2.56934 16.9097 2.50928 17.1792 2.50928C17.4546 2.50928 17.689 2.56934 17.8823 2.68945C18.0786 2.80957 18.2295 2.96924 18.335 3.16846C18.4404 3.36768 18.4932 3.58887 18.4932 3.83203V4.17041C18.4932 4.40771 18.4404 4.62598 18.335 4.8252C18.2324 5.02441 18.083 5.18408 17.8867 5.3042C17.6934 5.42432 17.4604 5.48438 17.188 5.48438C16.9155 5.48438 16.6797 5.42432 16.4805 5.3042C16.2842 5.18408 16.1333 5.02441 16.0278 4.8252C15.9224 4.62598 15.8696 4.40771 15.8696 4.17041ZM16.4805 3.83203V4.17041C16.4805 4.30518 16.5054 4.43262 16.5552 4.55273C16.6079 4.67285 16.687 4.771 16.7925 4.84717C16.8979 4.92041 17.0298 4.95703 17.188 4.95703C17.3462 4.95703 17.4766 4.92041 17.5791 4.84717C17.6816 4.771 17.7578 4.67285 17.8076 4.55273C17.8574 4.43262 17.8823 4.30518 17.8823 4.17041V3.83203C17.8823 3.69434 17.856 3.56543 17.8032 3.44531C17.7534 3.32227 17.6758 3.22412 17.5703 3.15088C17.4678 3.07471 17.3374 3.03662 17.1792 3.03662C17.0239 3.03662 16.8936 3.07471 16.7881 3.15088C16.6855 3.22412 16.6079 3.32227 16.5552 3.44531C16.5054 3.56543 16.4805 3.69434 16.4805 3.83203ZM18.9854 7.77393V7.43115C18.9854 7.19092 19.0381 6.97119 19.1436 6.77197C19.249 6.57275 19.3999 6.41309 19.5962 6.29297C19.7925 6.17285 20.0254 6.11279 20.2949 6.11279C20.5703 6.11279 20.8047 6.17285 20.998 6.29297C21.1943 6.41309 21.3452 6.57275 21.4507 6.77197C21.5562 6.97119 21.6089 7.19092 21.6089 7.43115V7.77393C21.6089 8.01416 21.5562 8.23389 21.4507 8.43311C21.3481 8.63232 21.1987 8.79199 21.0024 8.91211C20.8091 9.03223 20.5762 9.09229 20.3037 9.09229C20.0312 9.09229 19.7969 9.03223 19.6006 8.91211C19.4043 8.79199 19.252 8.63232 19.1436 8.43311C19.0381 8.23389 18.9854 8.01416 18.9854 7.77393ZM19.5962 7.43115V7.77393C19.5962 7.90869 19.6211 8.0376 19.6709 8.16064C19.7236 8.28076 19.8027 8.37891 19.9082 8.45508C20.0137 8.52832 20.1455 8.56494 20.3037 8.56494C20.4619 8.56494 20.5923 8.52832 20.6948 8.45508C20.8003 8.37891 20.8779 8.28076 20.9277 8.16064C20.9775 8.04053 21.0024 7.91162 21.0024 7.77393V7.43115C21.0024 7.29346 20.9761 7.16455 20.9233 7.04443C20.8735 6.92432 20.7959 6.82764 20.6904 6.75439C20.5879 6.67822 20.4561 6.64014 20.2949 6.64014C20.1396 6.64014 20.0093 6.67822 19.9038 6.75439C19.8013 6.82764 19.7236 6.92432 19.6709 7.04443C19.6211 7.16455 19.5962 7.29346 19.5962 7.43115ZM20.4971 3.51123L17.3726 8.51221L16.9155 8.22217L20.04 3.22119L20.4971 3.51123Z" fill="#333333"/>
<path d="M29.9126 240.332V241H25.7246V240.416L27.8208 238.082C28.0786 237.795 28.2778 237.552 28.4185 237.353C28.562 237.15 28.6616 236.97 28.7173 236.812C28.7759 236.651 28.8052 236.487 28.8052 236.32C28.8052 236.109 28.7612 235.918 28.6733 235.749C28.5884 235.576 28.4624 235.438 28.2954 235.335C28.1284 235.233 27.9263 235.182 27.689 235.182C27.4048 235.182 27.1675 235.237 26.9771 235.349C26.7896 235.457 26.6489 235.609 26.5552 235.806C26.4614 236.002 26.4146 236.228 26.4146 236.482H25.6016C25.6016 236.122 25.6807 235.792 25.8389 235.494C25.9971 235.195 26.2314 234.958 26.542 234.782C26.8525 234.603 27.2349 234.514 27.689 234.514C28.0933 234.514 28.439 234.585 28.7261 234.729C29.0132 234.87 29.2329 235.069 29.3853 235.327C29.5405 235.582 29.6182 235.88 29.6182 236.223C29.6182 236.411 29.5859 236.601 29.5215 236.794C29.46 236.985 29.3735 237.175 29.2622 237.366C29.1538 237.556 29.0264 237.744 28.8799 237.928C28.7363 238.113 28.5825 238.294 28.4185 238.473L26.7046 240.332H29.9126ZM34.918 234.602V235.059L32.2681 241H31.4111L34.0566 235.27H30.5938V234.602H34.918ZM35.9463 240.569C35.9463 240.432 35.9888 240.316 36.0737 240.222C36.1616 240.125 36.2876 240.077 36.4517 240.077C36.6157 240.077 36.7402 240.125 36.8252 240.222C36.9131 240.316 36.957 240.432 36.957 240.569C36.957 240.704 36.9131 240.818 36.8252 240.912C36.7402 241.006 36.6157 241.053 36.4517 241.053C36.2876 241.053 36.1616 241.006 36.0737 240.912C35.9888 240.818 35.9463 240.704 35.9463 240.569ZM42.2349 237.291V238.267C42.2349 238.791 42.188 239.233 42.0942 239.594C42.0005 239.954 41.8657 240.244 41.6899 240.464C41.5142 240.684 41.3018 240.843 41.0527 240.943C40.8066 241.04 40.5283 241.088 40.2178 241.088C39.9717 241.088 39.7446 241.057 39.5366 240.996C39.3286 240.934 39.1411 240.836 38.9741 240.701C38.8101 240.563 38.6694 240.385 38.5522 240.165C38.4351 239.945 38.3457 239.679 38.2842 239.365C38.2227 239.052 38.1919 238.686 38.1919 238.267V237.291C38.1919 236.767 38.2388 236.327 38.3325 235.973C38.4292 235.618 38.5654 235.334 38.7412 235.12C38.917 234.903 39.1279 234.748 39.374 234.654C39.623 234.561 39.9014 234.514 40.209 234.514C40.458 234.514 40.6865 234.544 40.8945 234.606C41.1055 234.665 41.293 234.76 41.457 234.892C41.6211 235.021 41.7603 235.193 41.8745 235.41C41.9917 235.624 42.0811 235.886 42.1426 236.197C42.2041 236.507 42.2349 236.872 42.2349 237.291ZM41.4175 238.398V237.155C41.4175 236.868 41.3999 236.616 41.3647 236.399C41.3325 236.179 41.2842 235.992 41.2197 235.836C41.1553 235.681 41.0732 235.555 40.9736 235.458C40.877 235.362 40.7642 235.292 40.6353 235.248C40.5093 235.201 40.3672 235.177 40.209 235.177C40.0156 235.177 39.8442 235.214 39.6948 235.287C39.5454 235.357 39.4194 235.47 39.3169 235.625C39.2173 235.781 39.1411 235.984 39.0884 236.236C39.0356 236.488 39.0093 236.794 39.0093 237.155V238.398C39.0093 238.686 39.0254 238.939 39.0576 239.159C39.0928 239.378 39.144 239.569 39.2114 239.73C39.2788 239.888 39.3608 240.019 39.4575 240.121C39.5542 240.224 39.6655 240.3 39.7915 240.35C39.9204 240.396 40.0625 240.42 40.2178 240.42C40.417 240.42 40.5913 240.382 40.7407 240.306C40.8901 240.229 41.0146 240.111 41.1143 239.95C41.2168 239.786 41.293 239.576 41.3428 239.321C41.3926 239.063 41.4175 238.756 41.4175 238.398ZM47.4731 240.332V241H43.2852V240.416L45.3813 238.082C45.6392 237.795 45.8384 237.552 45.979 237.353C46.1226 237.15 46.2222 236.97 46.2778 236.812C46.3364 236.651 46.3657 236.487 46.3657 236.32C46.3657 236.109 46.3218 235.918 46.2339 235.749C46.1489 235.576 46.0229 235.438 45.856 235.335C45.689 235.233 45.4868 235.182 45.2495 235.182C44.9653 235.182 44.728 235.237 44.5376 235.349C44.3501 235.457 44.2095 235.609 44.1157 235.806C44.022 236.002 43.9751 236.228 43.9751 236.482H43.1621C43.1621 236.122 43.2412 235.792 43.3994 235.494C43.5576 235.195 43.792 234.958 44.1025 234.782C44.4131 234.603 44.7954 234.514 45.2495 234.514C45.6538 234.514 45.9995 234.585 46.2866 234.729C46.5737 234.87 46.7935 235.069 46.9458 235.327C47.1011 235.582 47.1787 235.88 47.1787 236.223C47.1787 236.411 47.1465 236.601 47.082 236.794C47.0205 236.985 46.9341 237.175 46.8228 237.366C46.7144 237.556 46.5869 237.744 46.4404 237.928C46.2969 238.113 46.1431 238.294 45.979 238.473L44.2651 240.332H47.4731Z" fill="#333333"/>
<path d="M79.9126 240.332V241H75.7246V240.416L77.8208 238.082C78.0786 237.795 78.2778 237.552 78.4185 237.353C78.562 237.15 78.6616 236.97 78.7173 236.812C78.7759 236.651 78.8052 236.487 78.8052 236.32C78.8052 236.109 78.7612 235.918 78.6733 235.749C78.5884 235.576 78.4624 235.438 78.2954 235.335C78.1284 235.233 77.9263 235.182 77.689 235.182C77.4048 235.182 77.1675 235.237 76.9771 235.349C76.7896 235.457 76.6489 235.609 76.5552 235.806C76.4614 236.002 76.4146 236.228 76.4146 236.482H75.6016C75.6016 236.122 75.6807 235.792 75.8389 235.494C75.9971 235.195 76.2314 234.958 76.542 234.782C76.8525 234.603 77.2349 234.514 77.689 234.514C78.0933 234.514 78.439 234.585 78.7261 234.729C79.0132 234.87 79.2329 235.069 79.3853 235.327C79.5405 235.582 79.6182 235.88 79.6182 236.223C79.6182 236.411 79.5859 236.601 79.5215 236.794C79.46 236.985 79.3735 237.175 79.2622 237.366C79.1538 237.556 79.0264 237.744 78.8799 237.928C78.7363 238.113 78.5825 238.294 78.4185 238.473L76.7046 240.332H79.9126ZM84.8169 239.269C84.8169 239.658 84.7261 239.989 84.5444 240.262C84.3657 240.531 84.1226 240.736 83.8149 240.877C83.5103 241.018 83.166 241.088 82.7822 241.088C82.3984 241.088 82.0527 241.018 81.7451 240.877C81.4375 240.736 81.1943 240.531 81.0156 240.262C80.8369 239.989 80.7476 239.658 80.7476 239.269C80.7476 239.014 80.7959 238.781 80.8926 238.57C80.9922 238.356 81.1313 238.17 81.3101 238.012C81.4917 237.854 81.7056 237.732 81.9517 237.647C82.2007 237.559 82.4746 237.515 82.7734 237.515C83.166 237.515 83.5161 237.591 83.8237 237.744C84.1313 237.893 84.373 238.1 84.5488 238.363C84.7275 238.627 84.8169 238.929 84.8169 239.269ZM83.9995 239.251C83.9995 239.014 83.9482 238.804 83.8457 238.623C83.7432 238.438 83.5996 238.294 83.415 238.192C83.2305 238.089 83.0166 238.038 82.7734 238.038C82.5244 238.038 82.3091 238.089 82.1274 238.192C81.9487 238.294 81.8096 238.438 81.71 238.623C81.6104 238.804 81.5605 239.014 81.5605 239.251C81.5605 239.497 81.6089 239.708 81.7056 239.884C81.8052 240.057 81.9458 240.19 82.1274 240.284C82.312 240.375 82.5303 240.42 82.7822 240.42C83.0342 240.42 83.251 240.375 83.4326 240.284C83.6143 240.19 83.7534 240.057 83.8501 239.884C83.9497 239.708 83.9995 239.497 83.9995 239.251ZM84.6675 236.267C84.6675 236.578 84.5854 236.857 84.4214 237.106C84.2573 237.355 84.0332 237.552 83.749 237.695C83.4648 237.839 83.1426 237.911 82.7822 237.911C82.416 237.911 82.0894 237.839 81.8022 237.695C81.5181 237.552 81.2954 237.355 81.1343 237.106C80.9731 236.857 80.8926 236.578 80.8926 236.267C80.8926 235.895 80.9731 235.579 81.1343 235.318C81.2983 235.057 81.5225 234.858 81.8066 234.72C82.0908 234.583 82.4146 234.514 82.7778 234.514C83.144 234.514 83.4692 234.583 83.7534 234.72C84.0376 234.858 84.2603 235.057 84.4214 235.318C84.5854 235.579 84.6675 235.895 84.6675 236.267ZM83.8545 236.28C83.8545 236.066 83.8091 235.877 83.7183 235.713C83.6274 235.549 83.5015 235.42 83.3403 235.327C83.1792 235.23 82.9917 235.182 82.7778 235.182C82.564 235.182 82.3765 235.227 82.2153 235.318C82.0571 235.406 81.9326 235.532 81.8418 235.696C81.7539 235.86 81.71 236.055 81.71 236.28C81.71 236.5 81.7539 236.692 81.8418 236.856C81.9326 237.02 82.0586 237.147 82.2197 237.238C82.3809 237.329 82.5684 237.375 82.7822 237.375C82.9961 237.375 83.1821 237.329 83.3403 237.238C83.5015 237.147 83.6274 237.02 83.7183 236.856C83.8091 236.692 83.8545 236.5 83.8545 236.28ZM85.9463 240.569C85.9463 240.432 85.9888 240.316 86.0737 240.222C86.1616 240.125 86.2876 240.077 86.4517 240.077C86.6157 240.077 86.7402 240.125 86.8252 240.222C86.9131 240.316 86.957 240.432 86.957 240.569C86.957 240.704 86.9131 240.818 86.8252 240.912C86.7402 241.006 86.6157 241.053 86.4517 241.053C86.2876 241.053 86.1616 241.006 86.0737 240.912C85.9888 240.818 85.9463 240.704 85.9463 240.569ZM92.2349 237.291V238.267C92.2349 238.791 92.188 239.233 92.0942 239.594C92.0005 239.954 91.8657 240.244 91.6899 240.464C91.5142 240.684 91.3018 240.843 91.0527 240.943C90.8066 241.04 90.5283 241.088 90.2178 241.088C89.9717 241.088 89.7446 241.057 89.5366 240.996C89.3286 240.934 89.1411 240.836 88.9741 240.701C88.8101 240.563 88.6694 240.385 88.5522 240.165C88.4351 239.945 88.3457 239.679 88.2842 239.365C88.2227 239.052 88.1919 238.686 88.1919 238.267V237.291C88.1919 236.767 88.2388 236.327 88.3325 235.973C88.4292 235.618 88.5654 235.334 88.7412 235.12C88.917 234.903 89.1279 234.748 89.374 234.654C89.623 234.561 89.9014 234.514 90.209 234.514C90.458 234.514 90.6865 234.544 90.8945 234.606C91.1055 234.665 91.293 234.76 91.457 234.892C91.6211 235.021 91.7603 235.193 91.8745 235.41C91.9917 235.624 92.0811 235.886 92.1426 236.197C92.2041 236.507 92.2349 236.872 92.2349 237.291ZM91.4175 238.398V237.155C91.4175 236.868 91.3999 236.616 91.3647 236.399C91.3325 236.179 91.2842 235.992 91.2197 235.836C91.1553 235.681 91.0732 235.555 90.9736 235.458C90.877 235.362 90.7642 235.292 90.6353 235.248C90.5093 235.201 90.3672 235.177 90.209 235.177C90.0156 235.177 89.8442 235.214 89.6948 235.287C89.5454 235.357 89.4194 235.47 89.3169 235.625C89.2173 235.781 89.1411 235.984 89.0884 236.236C89.0356 236.488 89.0093 236.794 89.0093 237.155V238.398C89.0093 238.686 89.0254 238.939 89.0576 239.159C89.0928 239.378 89.144 239.569 89.2114 239.73C89.2788 239.888 89.3608 240.019 89.4575 240.121C89.5542 240.224 89.6655 240.3 89.7915 240.35C89.9204 240.396 90.0625 240.42 90.2178 240.42C90.417 240.42 90.5913 240.382 90.7407 240.306C90.8901 240.229 91.0146 240.111 91.1143 239.95C91.2168 239.786 91.293 239.576 91.3428 239.321C91.3926 239.063 91.4175 238.756 91.4175 238.398ZM97.4731 240.332V241H93.2852V240.416L95.3813 238.082C95.6392 237.795 95.8384 237.552 95.979 237.353C96.1226 237.15 96.2222 236.97 96.2778 236.812C96.3364 236.651 96.3657 236.487 96.3657 236.32C96.3657 236.109 96.3218 235.918 96.2339 235.749C96.1489 235.576 96.0229 235.438 95.856 235.335C95.689 235.233 95.4868 235.182 95.2495 235.182C94.9653 235.182 94.728 235.237 94.5376 235.349C94.3501 235.457 94.2095 235.609 94.1157 235.806C94.022 236.002 93.9751 236.228 93.9751 236.482H93.1621C93.1621 236.122 93.2412 235.792 93.3994 235.494C93.5576 235.195 93.792 234.958 94.1025 234.782C94.4131 234.603 94.7954 234.514 95.2495 234.514C95.6538 234.514 95.9995 234.585 96.2866 234.729C96.5737 234.87 96.7935 235.069 96.9458 235.327C97.1011 235.582 97.1787 235.88 97.1787 236.223C97.1787 236.411 97.1465 236.601 97.082 236.794C97.0205 236.985 96.9341 237.175 96.8228 237.366C96.7144 237.556 96.5869 237.744 96.4404 237.928C96.2969 238.113 96.1431 238.294 95.979 238.473L94.2651 240.332H97.4731Z" fill="#333333"/>
<path d="M141.423 234.566V241H140.61V235.582L138.971 236.179V235.445L141.296 234.566H141.423ZM143.915 240.569C143.915 240.432 143.958 240.316 144.042 240.222C144.13 240.125 144.256 240.077 144.42 240.077C144.584 240.077 144.709 240.125 144.794 240.222C144.882 240.316 144.926 240.432 144.926 240.569C144.926 240.704 144.882 240.818 144.794 240.912C144.709 241.006 144.584 241.053 144.42 241.053C144.256 241.053 144.13 241.006 144.042 240.912C143.958 240.818 143.915 240.704 143.915 240.569ZM150.204 237.291V238.267C150.204 238.791 150.157 239.233 150.063 239.594C149.969 239.954 149.834 240.244 149.659 240.464C149.483 240.684 149.271 240.843 149.021 240.943C148.775 241.04 148.497 241.088 148.187 241.088C147.94 241.088 147.713 241.057 147.505 240.996C147.297 240.934 147.11 240.836 146.943 240.701C146.779 240.563 146.638 240.385 146.521 240.165C146.404 239.945 146.314 239.679 146.253 239.365C146.191 239.052 146.161 238.686 146.161 238.267V237.291C146.161 236.767 146.208 236.327 146.301 235.973C146.398 235.618 146.534 235.334 146.71 235.12C146.886 234.903 147.097 234.748 147.343 234.654C147.592 234.561 147.87 234.514 148.178 234.514C148.427 234.514 148.655 234.544 148.863 234.606C149.074 234.665 149.262 234.76 149.426 234.892C149.59 235.021 149.729 235.193 149.843 235.41C149.96 235.624 150.05 235.886 150.111 236.197C150.173 236.507 150.204 236.872 150.204 237.291ZM149.386 238.398V237.155C149.386 236.868 149.369 236.616 149.333 236.399C149.301 236.179 149.253 235.992 149.188 235.836C149.124 235.681 149.042 235.555 148.942 235.458C148.846 235.362 148.733 235.292 148.604 235.248C148.478 235.201 148.336 235.177 148.178 235.177C147.984 235.177 147.813 235.214 147.664 235.287C147.514 235.357 147.388 235.47 147.286 235.625C147.186 235.781 147.11 235.984 147.057 236.236C147.004 236.488 146.978 236.794 146.978 237.155V238.398C146.978 238.686 146.994 238.939 147.026 239.159C147.062 239.378 147.113 239.569 147.18 239.73C147.248 239.888 147.33 240.019 147.426 240.121C147.523 240.224 147.634 240.3 147.76 240.35C147.889 240.396 148.031 240.42 148.187 240.42C148.386 240.42 148.56 240.382 148.709 240.306C148.859 240.229 148.983 240.111 149.083 239.95C149.186 239.786 149.262 239.576 149.312 239.321C149.361 239.063 149.386 238.756 149.386 238.398ZM152.436 237.401H153.016C153.3 237.401 153.535 237.354 153.719 237.26C153.907 237.164 154.046 237.033 154.137 236.869C154.23 236.702 154.277 236.515 154.277 236.307C154.277 236.061 154.236 235.854 154.154 235.687C154.072 235.52 153.949 235.394 153.785 235.309C153.621 235.224 153.413 235.182 153.161 235.182C152.933 235.182 152.73 235.227 152.555 235.318C152.382 235.406 152.246 235.532 152.146 235.696C152.049 235.86 152.001 236.053 152.001 236.276H151.188C151.188 235.951 151.27 235.655 151.434 235.388C151.598 235.122 151.828 234.909 152.124 234.751C152.423 234.593 152.769 234.514 153.161 234.514C153.548 234.514 153.886 234.583 154.176 234.72C154.466 234.855 154.692 235.057 154.853 235.327C155.014 235.593 155.095 235.926 155.095 236.324C155.095 236.485 155.057 236.658 154.98 236.843C154.907 237.024 154.792 237.194 154.633 237.353C154.478 237.511 154.276 237.641 154.027 237.744C153.778 237.843 153.479 237.893 153.13 237.893H152.436V237.401ZM152.436 238.069V237.581H153.13C153.538 237.581 153.875 237.629 154.141 237.726C154.408 237.823 154.617 237.952 154.77 238.113C154.925 238.274 155.033 238.451 155.095 238.645C155.159 238.835 155.191 239.025 155.191 239.216C155.191 239.515 155.14 239.78 155.038 240.011C154.938 240.243 154.796 240.439 154.611 240.6C154.43 240.761 154.216 240.883 153.97 240.965C153.724 241.047 153.456 241.088 153.166 241.088C152.887 241.088 152.625 241.048 152.379 240.969C152.136 240.89 151.92 240.776 151.733 240.626C151.545 240.474 151.399 240.288 151.293 240.068C151.188 239.846 151.135 239.592 151.135 239.308H151.948C151.948 239.531 151.997 239.726 152.093 239.893C152.193 240.06 152.333 240.19 152.515 240.284C152.7 240.375 152.917 240.42 153.166 240.42C153.415 240.42 153.628 240.377 153.807 240.292C153.989 240.205 154.128 240.073 154.225 239.897C154.324 239.721 154.374 239.5 154.374 239.233C154.374 238.967 154.318 238.749 154.207 238.579C154.096 238.406 153.938 238.278 153.732 238.196C153.53 238.111 153.292 238.069 153.016 238.069H152.436Z" fill="#333333"/>
<path d="M203.944 240.332V241H199.756V240.416L201.852 238.082C202.11 237.795 202.309 237.552 202.45 237.353C202.593 237.15 202.693 236.97 202.749 236.812C202.807 236.651 202.836 236.487 202.836 236.32C202.836 236.109 202.792 235.918 202.705 235.749C202.62 235.576 202.494 235.438 202.327 235.335C202.16 235.233 201.958 235.182 201.72 235.182C201.436 235.182 201.199 235.237 201.008 235.349C200.821 235.457 200.68 235.609 200.586 235.806C200.493 236.002 200.446 236.228 200.446 236.482H199.633C199.633 236.122 199.712 235.792 199.87 235.494C200.028 235.195 200.263 234.958 200.573 234.782C200.884 234.603 201.266 234.514 201.72 234.514C202.125 234.514 202.47 234.585 202.757 234.729C203.044 234.87 203.264 235.069 203.417 235.327C203.572 235.582 203.649 235.88 203.649 236.223C203.649 236.411 203.617 236.601 203.553 236.794C203.491 236.985 203.405 237.175 203.293 237.366C203.185 237.556 203.058 237.744 202.911 237.928C202.768 238.113 202.614 238.294 202.45 238.473L200.736 240.332H203.944ZM204.915 240.569C204.915 240.432 204.958 240.316 205.042 240.222C205.13 240.125 205.256 240.077 205.42 240.077C205.584 240.077 205.709 240.125 205.794 240.222C205.882 240.316 205.926 240.432 205.926 240.569C205.926 240.704 205.882 240.818 205.794 240.912C205.709 241.006 205.584 241.053 205.42 241.053C205.256 241.053 205.13 241.006 205.042 240.912C204.958 240.818 204.915 240.704 204.915 240.569ZM211.204 237.291V238.267C211.204 238.791 211.157 239.233 211.063 239.594C210.969 239.954 210.834 240.244 210.659 240.464C210.483 240.684 210.271 240.843 210.021 240.943C209.775 241.04 209.497 241.088 209.187 241.088C208.94 241.088 208.713 241.057 208.505 240.996C208.297 240.934 208.11 240.836 207.943 240.701C207.779 240.563 207.638 240.385 207.521 240.165C207.404 239.945 207.314 239.679 207.253 239.365C207.191 239.052 207.161 238.686 207.161 238.267V237.291C207.161 236.767 207.208 236.327 207.301 235.973C207.398 235.618 207.534 235.334 207.71 235.12C207.886 234.903 208.097 234.748 208.343 234.654C208.592 234.561 208.87 234.514 209.178 234.514C209.427 234.514 209.655 234.544 209.863 234.606C210.074 234.665 210.262 234.76 210.426 234.892C210.59 235.021 210.729 235.193 210.843 235.41C210.96 235.624 211.05 235.886 211.111 236.197C211.173 236.507 211.204 236.872 211.204 237.291ZM210.386 238.398V237.155C210.386 236.868 210.369 236.616 210.333 236.399C210.301 236.179 210.253 235.992 210.188 235.836C210.124 235.681 210.042 235.555 209.942 235.458C209.846 235.362 209.733 235.292 209.604 235.248C209.478 235.201 209.336 235.177 209.178 235.177C208.984 235.177 208.813 235.214 208.664 235.287C208.514 235.357 208.388 235.47 208.286 235.625C208.186 235.781 208.11 235.984 208.057 236.236C208.004 236.488 207.978 236.794 207.978 237.155V238.398C207.978 238.686 207.994 238.939 208.026 239.159C208.062 239.378 208.113 239.569 208.18 239.73C208.248 239.888 208.33 240.019 208.426 240.121C208.523 240.224 208.634 240.3 208.76 240.35C208.889 240.396 209.031 240.42 209.187 240.42C209.386 240.42 209.56 240.382 209.709 240.306C209.859 240.229 209.983 240.111 210.083 239.95C210.186 239.786 210.262 239.576 210.312 239.321C210.361 239.063 210.386 238.756 210.386 238.398ZM213.436 237.401H214.016C214.3 237.401 214.535 237.354 214.719 237.26C214.907 237.164 215.046 237.033 215.137 236.869C215.23 236.702 215.277 236.515 215.277 236.307C215.277 236.061 215.236 235.854 215.154 235.687C215.072 235.52 214.949 235.394 214.785 235.309C214.621 235.224 214.413 235.182 214.161 235.182C213.933 235.182 213.73 235.227 213.555 235.318C213.382 235.406 213.246 235.532 213.146 235.696C213.049 235.86 213.001 236.053 213.001 236.276H212.188C212.188 235.951 212.27 235.655 212.434 235.388C212.598 235.122 212.828 234.909 213.124 234.751C213.423 234.593 213.769 234.514 214.161 234.514C214.548 234.514 214.886 234.583 215.176 234.72C215.466 234.855 215.692 235.057 215.853 235.327C216.014 235.593 216.095 235.926 216.095 236.324C216.095 236.485 216.057 236.658 215.98 236.843C215.907 237.024 215.792 237.194 215.633 237.353C215.478 237.511 215.276 237.641 215.027 237.744C214.778 237.843 214.479 237.893 214.13 237.893H213.436V237.401ZM213.436 238.069V237.581H214.13C214.538 237.581 214.875 237.629 215.141 237.726C215.408 237.823 215.617 237.952 215.77 238.113C215.925 238.274 216.033 238.451 216.095 238.645C216.159 238.835 216.191 239.025 216.191 239.216C216.191 239.515 216.14 239.78 216.038 240.011C215.938 240.243 215.796 240.439 215.611 240.6C215.43 240.761 215.216 240.883 214.97 240.965C214.724 241.047 214.456 241.088 214.166 241.088C213.887 241.088 213.625 241.048 213.379 240.969C213.136 240.89 212.92 240.776 212.733 240.626C212.545 240.474 212.399 240.288 212.293 240.068C212.188 239.846 212.135 239.592 212.135 239.308H212.948C212.948 239.531 212.997 239.726 213.093 239.893C213.193 240.06 213.333 240.19 213.515 240.284C213.7 240.375 213.917 240.42 214.166 240.42C214.415 240.42 214.628 240.377 214.807 240.292C214.989 240.205 215.128 240.073 215.225 239.897C215.324 239.721 215.374 239.5 215.374 239.233C215.374 238.967 215.318 238.749 215.207 238.579C215.096 238.406 214.938 238.278 214.732 238.196C214.53 238.111 214.292 238.069 214.016 238.069H213.436Z" fill="#333333"/>
<path d="M261.938 237.401H262.518C262.802 237.401 263.037 237.354 263.221 237.26C263.409 237.164 263.548 237.033 263.639 236.869C263.732 236.702 263.779 236.515 263.779 236.307C263.779 236.061 263.738 235.854 263.656 235.687C263.574 235.52 263.451 235.394 263.287 235.309C263.123 235.224 262.915 235.182 262.663 235.182C262.435 235.182 262.232 235.227 262.057 235.318C261.884 235.406 261.748 235.532 261.648 235.696C261.551 235.86 261.503 236.053 261.503 236.276H260.69C260.69 235.951 260.772 235.655 260.936 235.388C261.1 235.122 261.33 234.909 261.626 234.751C261.925 234.593 262.271 234.514 262.663 234.514C263.05 234.514 263.388 234.583 263.678 234.72C263.968 234.855 264.194 235.057 264.355 235.327C264.516 235.593 264.597 235.926 264.597 236.324C264.597 236.485 264.559 236.658 264.482 236.843C264.409 237.024 264.293 237.194 264.135 237.353C263.98 237.511 263.778 237.641 263.529 237.744C263.28 237.843 262.981 237.893 262.632 237.893H261.938V237.401ZM261.938 238.069V237.581H262.632C263.04 237.581 263.376 237.629 263.643 237.726C263.91 237.823 264.119 237.952 264.271 238.113C264.427 238.274 264.535 238.451 264.597 238.645C264.661 238.835 264.693 239.025 264.693 239.216C264.693 239.515 264.642 239.78 264.54 240.011C264.44 240.243 264.298 240.439 264.113 240.6C263.932 240.761 263.718 240.883 263.472 240.965C263.226 241.047 262.958 241.088 262.667 241.088C262.389 241.088 262.127 241.048 261.881 240.969C261.638 240.89 261.422 240.776 261.235 240.626C261.047 240.474 260.901 240.288 260.795 240.068C260.69 239.846 260.637 239.592 260.637 239.308H261.45C261.45 239.531 261.499 239.726 261.595 239.893C261.695 240.06 261.835 240.19 262.017 240.284C262.202 240.375 262.418 240.42 262.667 240.42C262.917 240.42 263.13 240.377 263.309 240.292C263.491 240.205 263.63 240.073 263.727 239.897C263.826 239.721 263.876 239.5 263.876 239.233C263.876 238.967 263.82 238.749 263.709 238.579C263.598 238.406 263.439 238.278 263.234 238.196C263.032 238.111 262.793 238.069 262.518 238.069H261.938ZM265.915 240.569C265.915 240.432 265.958 240.316 266.042 240.222C266.13 240.125 266.256 240.077 266.42 240.077C266.584 240.077 266.709 240.125 266.794 240.222C266.882 240.316 266.926 240.432 266.926 240.569C266.926 240.704 266.882 240.818 266.794 240.912C266.709 241.006 266.584 241.053 266.42 241.053C266.256 241.053 266.13 241.006 266.042 240.912C265.958 240.818 265.915 240.704 265.915 240.569ZM272.204 237.291V238.267C272.204 238.791 272.157 239.233 272.063 239.594C271.969 239.954 271.834 240.244 271.659 240.464C271.483 240.684 271.271 240.843 271.021 240.943C270.775 241.04 270.497 241.088 270.187 241.088C269.94 241.088 269.713 241.057 269.505 240.996C269.297 240.934 269.11 240.836 268.943 240.701C268.779 240.563 268.638 240.385 268.521 240.165C268.404 239.945 268.314 239.679 268.253 239.365C268.191 239.052 268.161 238.686 268.161 238.267V237.291C268.161 236.767 268.208 236.327 268.301 235.973C268.398 235.618 268.534 235.334 268.71 235.12C268.886 234.903 269.097 234.748 269.343 234.654C269.592 234.561 269.87 234.514 270.178 234.514C270.427 234.514 270.655 234.544 270.863 234.606C271.074 234.665 271.262 234.76 271.426 234.892C271.59 235.021 271.729 235.193 271.843 235.41C271.96 235.624 272.05 235.886 272.111 236.197C272.173 236.507 272.204 236.872 272.204 237.291ZM271.386 238.398V237.155C271.386 236.868 271.369 236.616 271.333 236.399C271.301 236.179 271.253 235.992 271.188 235.836C271.124 235.681 271.042 235.555 270.942 235.458C270.846 235.362 270.733 235.292 270.604 235.248C270.478 235.201 270.336 235.177 270.178 235.177C269.984 235.177 269.813 235.214 269.664 235.287C269.514 235.357 269.388 235.47 269.286 235.625C269.186 235.781 269.11 235.984 269.057 236.236C269.004 236.488 268.978 236.794 268.978 237.155V238.398C268.978 238.686 268.994 238.939 269.026 239.159C269.062 239.378 269.113 239.569 269.18 239.73C269.248 239.888 269.33 240.019 269.426 240.121C269.523 240.224 269.634 240.3 269.76 240.35C269.889 240.396 270.031 240.42 270.187 240.42C270.386 240.42 270.56 240.382 270.709 240.306C270.859 240.229 270.983 240.111 271.083 239.95C271.186 239.786 271.262 239.576 271.312 239.321C271.361 239.063 271.386 238.756 271.386 238.398ZM274.436 237.401H275.016C275.3 237.401 275.535 237.354 275.719 237.26C275.907 237.164 276.046 237.033 276.137 236.869C276.23 236.702 276.277 236.515 276.277 236.307C276.277 236.061 276.236 235.854 276.154 235.687C276.072 235.52 275.949 235.394 275.785 235.309C275.621 235.224 275.413 235.182 275.161 235.182C274.933 235.182 274.73 235.227 274.555 235.318C274.382 235.406 274.246 235.532 274.146 235.696C274.049 235.86 274.001 236.053 274.001 236.276H273.188C273.188 235.951 273.27 235.655 273.434 235.388C273.598 235.122 273.828 234.909 274.124 234.751C274.423 234.593 274.769 234.514 275.161 234.514C275.548 234.514 275.886 234.583 276.176 234.72C276.466 234.855 276.692 235.057 276.853 235.327C277.014 235.593 277.095 235.926 277.095 236.324C277.095 236.485 277.057 236.658 276.98 236.843C276.907 237.024 276.792 237.194 276.633 237.353C276.478 237.511 276.276 237.641 276.027 237.744C275.778 237.843 275.479 237.893 275.13 237.893H274.436V237.401ZM274.436 238.069V237.581H275.13C275.538 237.581 275.875 237.629 276.141 237.726C276.408 237.823 276.617 237.952 276.77 238.113C276.925 238.274 277.033 238.451 277.095 238.645C277.159 238.835 277.191 239.025 277.191 239.216C277.191 239.515 277.14 239.78 277.038 240.011C276.938 240.243 276.796 240.439 276.611 240.6C276.43 240.761 276.216 240.883 275.97 240.965C275.724 241.047 275.456 241.088 275.166 241.088C274.887 241.088 274.625 241.048 274.379 240.969C274.136 240.89 273.92 240.776 273.733 240.626C273.545 240.474 273.399 240.288 273.293 240.068C273.188 239.846 273.135 239.592 273.135 239.308H273.948C273.948 239.531 273.997 239.726 274.093 239.893C274.193 240.06 274.333 240.19 274.515 240.284C274.7 240.375 274.917 240.42 275.166 240.42C275.415 240.42 275.628 240.377 275.807 240.292C275.989 240.205 276.128 240.073 276.225 239.897C276.324 239.721 276.374 239.5 276.374 239.233C276.374 238.967 276.318 238.749 276.207 238.579C276.096 238.406 275.938 238.278 275.732 238.196C275.53 238.111 275.292 238.069 275.016 238.069H274.436Z" fill="#333333"/>
<path d="M324.872 234.593H324.942V235.283H324.872C324.441 235.283 324.081 235.353 323.791 235.494C323.5 235.631 323.271 235.817 323.101 236.052C322.931 236.283 322.808 236.544 322.731 236.834C322.658 237.124 322.622 237.418 322.622 237.717V238.658C322.622 238.942 322.655 239.194 322.723 239.414C322.79 239.63 322.882 239.813 323 239.963C323.117 240.112 323.249 240.225 323.395 240.301C323.544 240.377 323.7 240.416 323.861 240.416C324.048 240.416 324.215 240.38 324.362 240.31C324.508 240.237 324.631 240.136 324.731 240.007C324.833 239.875 324.911 239.72 324.964 239.541C325.017 239.362 325.043 239.166 325.043 238.952C325.043 238.762 325.02 238.579 324.973 238.403C324.926 238.224 324.854 238.066 324.757 237.928C324.661 237.788 324.539 237.678 324.393 237.599C324.249 237.517 324.078 237.476 323.878 237.476C323.653 237.476 323.442 237.531 323.246 237.643C323.052 237.751 322.893 237.895 322.767 238.073C322.644 238.249 322.573 238.441 322.556 238.649L322.125 238.645C322.166 238.316 322.242 238.037 322.354 237.805C322.468 237.571 322.608 237.38 322.775 237.234C322.945 237.084 323.134 236.976 323.342 236.909C323.553 236.838 323.776 236.803 324.01 236.803C324.33 236.803 324.605 236.863 324.836 236.983C325.068 237.104 325.258 237.265 325.408 237.467C325.557 237.666 325.667 237.892 325.737 238.144C325.811 238.393 325.847 238.649 325.847 238.913C325.847 239.214 325.805 239.497 325.72 239.761C325.635 240.024 325.507 240.256 325.337 240.455C325.17 240.654 324.964 240.81 324.718 240.921C324.472 241.032 324.186 241.088 323.861 241.088C323.515 241.088 323.213 241.018 322.956 240.877C322.698 240.733 322.484 240.543 322.314 240.306C322.144 240.068 322.017 239.805 321.932 239.515C321.847 239.225 321.804 238.93 321.804 238.631V238.249C321.804 237.798 321.85 237.355 321.94 236.922C322.031 236.488 322.188 236.096 322.411 235.744C322.636 235.393 322.948 235.113 323.347 234.905C323.745 234.697 324.253 234.593 324.872 234.593ZM326.915 240.569C326.915 240.432 326.958 240.316 327.042 240.222C327.13 240.125 327.256 240.077 327.42 240.077C327.584 240.077 327.709 240.125 327.794 240.222C327.882 240.316 327.926 240.432 327.926 240.569C327.926 240.704 327.882 240.818 327.794 240.912C327.709 241.006 327.584 241.053 327.42 241.053C327.256 241.053 327.13 241.006 327.042 240.912C326.958 240.818 326.915 240.704 326.915 240.569ZM333.204 237.291V238.267C333.204 238.791 333.157 239.233 333.063 239.594C332.969 239.954 332.834 240.244 332.659 240.464C332.483 240.684 332.271 240.843 332.021 240.943C331.775 241.04 331.497 241.088 331.187 241.088C330.94 241.088 330.713 241.057 330.505 240.996C330.297 240.934 330.11 240.836 329.943 240.701C329.779 240.563 329.638 240.385 329.521 240.165C329.404 239.945 329.314 239.679 329.253 239.365C329.191 239.052 329.161 238.686 329.161 238.267V237.291C329.161 236.767 329.208 236.327 329.301 235.973C329.398 235.618 329.534 235.334 329.71 235.12C329.886 234.903 330.097 234.748 330.343 234.654C330.592 234.561 330.87 234.514 331.178 234.514C331.427 234.514 331.655 234.544 331.863 234.606C332.074 234.665 332.262 234.76 332.426 234.892C332.59 235.021 332.729 235.193 332.843 235.41C332.96 235.624 333.05 235.886 333.111 236.197C333.173 236.507 333.204 236.872 333.204 237.291ZM332.386 238.398V237.155C332.386 236.868 332.369 236.616 332.333 236.399C332.301 236.179 332.253 235.992 332.188 235.836C332.124 235.681 332.042 235.555 331.942 235.458C331.846 235.362 331.733 235.292 331.604 235.248C331.478 235.201 331.336 235.177 331.178 235.177C330.984 235.177 330.813 235.214 330.664 235.287C330.514 235.357 330.388 235.47 330.286 235.625C330.186 235.781 330.11 235.984 330.057 236.236C330.004 236.488 329.978 236.794 329.978 237.155V238.398C329.978 238.686 329.994 238.939 330.026 239.159C330.062 239.378 330.113 239.569 330.18 239.73C330.248 239.888 330.33 240.019 330.426 240.121C330.523 240.224 330.634 240.3 330.76 240.35C330.889 240.396 331.031 240.42 331.187 240.42C331.386 240.42 331.56 240.382 331.709 240.306C331.859 240.229 331.983 240.111 332.083 239.95C332.186 239.786 332.262 239.576 332.312 239.321C332.361 239.063 332.386 238.756 332.386 238.398ZM335.436 237.401H336.016C336.3 237.401 336.535 237.354 336.719 237.26C336.907 237.164 337.046 237.033 337.137 236.869C337.23 236.702 337.277 236.515 337.277 236.307C337.277 236.061 337.236 235.854 337.154 235.687C337.072 235.52 336.949 235.394 336.785 235.309C336.621 235.224 336.413 235.182 336.161 235.182C335.933 235.182 335.73 235.227 335.555 235.318C335.382 235.406 335.246 235.532 335.146 235.696C335.049 235.86 335.001 236.053 335.001 236.276H334.188C334.188 235.951 334.27 235.655 334.434 235.388C334.598 235.122 334.828 234.909 335.124 234.751C335.423 234.593 335.769 234.514 336.161 234.514C336.548 234.514 336.886 234.583 337.176 234.72C337.466 234.855 337.692 235.057 337.853 235.327C338.014 235.593 338.095 235.926 338.095 236.324C338.095 236.485 338.057 236.658 337.98 236.843C337.907 237.024 337.792 237.194 337.633 237.353C337.478 237.511 337.276 237.641 337.027 237.744C336.778 237.843 336.479 237.893 336.13 237.893H335.436V237.401ZM335.436 238.069V237.581H336.13C336.538 237.581 336.875 237.629 337.141 237.726C337.408 237.823 337.617 237.952 337.77 238.113C337.925 238.274 338.033 238.451 338.095 238.645C338.159 238.835 338.191 239.025 338.191 239.216C338.191 239.515 338.14 239.78 338.038 240.011C337.938 240.243 337.796 240.439 337.611 240.6C337.43 240.761 337.216 240.883 336.97 240.965C336.724 241.047 336.456 241.088 336.166 241.088C335.887 241.088 335.625 241.048 335.379 240.969C335.136 240.89 334.92 240.776 334.733 240.626C334.545 240.474 334.399 240.288 334.293 240.068C334.188 239.846 334.135 239.592 334.135 239.308H334.948C334.948 239.531 334.997 239.726 335.093 239.893C335.193 240.06 335.333 240.19 335.515 240.284C335.7 240.375 335.917 240.42 336.166 240.42C336.415 240.42 336.628 240.377 336.807 240.292C336.989 240.205 337.128 240.073 337.225 239.897C337.324 239.721 337.374 239.5 337.374 239.233C337.374 238.967 337.318 238.749 337.207 238.579C337.096 238.406 336.938 238.278 336.732 238.196C336.53 238.111 336.292 238.069 336.016 238.069H335.436Z" fill="#333333"/>
<path d="M377.887 234.602V235.059L375.237 241H374.38L377.025 235.27H373.562V234.602H377.887ZM378.915 240.569C378.915 240.432 378.958 240.316 379.042 240.222C379.13 240.125 379.256 240.077 379.42 240.077C379.584 240.077 379.709 240.125 379.794 240.222C379.882 240.316 379.926 240.432 379.926 240.569C379.926 240.704 379.882 240.818 379.794 240.912C379.709 241.006 379.584 241.053 379.42 241.053C379.256 241.053 379.13 241.006 379.042 240.912C378.958 240.818 378.915 240.704 378.915 240.569ZM385.204 237.291V238.267C385.204 238.791 385.157 239.233 385.063 239.594C384.969 239.954 384.834 240.244 384.659 240.464C384.483 240.684 384.271 240.843 384.021 240.943C383.775 241.04 383.497 241.088 383.187 241.088C382.94 241.088 382.713 241.057 382.505 240.996C382.297 240.934 382.11 240.836 381.943 240.701C381.779 240.563 381.638 240.385 381.521 240.165C381.404 239.945 381.314 239.679 381.253 239.365C381.191 239.052 381.161 238.686 381.161 238.267V237.291C381.161 236.767 381.208 236.327 381.301 235.973C381.398 235.618 381.534 235.334 381.71 235.12C381.886 234.903 382.097 234.748 382.343 234.654C382.592 234.561 382.87 234.514 383.178 234.514C383.427 234.514 383.655 234.544 383.863 234.606C384.074 234.665 384.262 234.76 384.426 234.892C384.59 235.021 384.729 235.193 384.843 235.41C384.96 235.624 385.05 235.886 385.111 236.197C385.173 236.507 385.204 236.872 385.204 237.291ZM384.386 238.398V237.155C384.386 236.868 384.369 236.616 384.333 236.399C384.301 236.179 384.253 235.992 384.188 235.836C384.124 235.681 384.042 235.555 383.942 235.458C383.846 235.362 383.733 235.292 383.604 235.248C383.478 235.201 383.336 235.177 383.178 235.177C382.984 235.177 382.813 235.214 382.664 235.287C382.514 235.357 382.388 235.47 382.286 235.625C382.186 235.781 382.11 235.984 382.057 236.236C382.004 236.488 381.978 236.794 381.978 237.155V238.398C381.978 238.686 381.994 238.939 382.026 239.159C382.062 239.378 382.113 239.569 382.18 239.73C382.248 239.888 382.33 240.019 382.426 240.121C382.523 240.224 382.634 240.3 382.76 240.35C382.889 240.396 383.031 240.42 383.187 240.42C383.386 240.42 383.56 240.382 383.709 240.306C383.859 240.229 383.983 240.111 384.083 239.95C384.186 239.786 384.262 239.576 384.312 239.321C384.361 239.063 384.386 238.756 384.386 238.398ZM387.436 237.401H388.016C388.3 237.401 388.535 237.354 388.719 237.26C388.907 237.164 389.046 237.033 389.137 236.869C389.23 236.702 389.277 236.515 389.277 236.307C389.277 236.061 389.236 235.854 389.154 235.687C389.072 235.52 388.949 235.394 388.785 235.309C388.621 235.224 388.413 235.182 388.161 235.182C387.933 235.182 387.73 235.227 387.555 235.318C387.382 235.406 387.246 235.532 387.146 235.696C387.049 235.86 387.001 236.053 387.001 236.276H386.188C386.188 235.951 386.27 235.655 386.434 235.388C386.598 235.122 386.828 234.909 387.124 234.751C387.423 234.593 387.769 234.514 388.161 234.514C388.548 234.514 388.886 234.583 389.176 234.72C389.466 234.855 389.692 235.057 389.853 235.327C390.014 235.593 390.095 235.926 390.095 236.324C390.095 236.485 390.057 236.658 389.98 236.843C389.907 237.024 389.792 237.194 389.633 237.353C389.478 237.511 389.276 237.641 389.027 237.744C388.778 237.843 388.479 237.893 388.13 237.893H387.436V237.401ZM387.436 238.069V237.581H388.13C388.538 237.581 388.875 237.629 389.141 237.726C389.408 237.823 389.617 237.952 389.77 238.113C389.925 238.274 390.033 238.451 390.095 238.645C390.159 238.835 390.191 239.025 390.191 239.216C390.191 239.515 390.14 239.78 390.038 240.011C389.938 240.243 389.796 240.439 389.611 240.6C389.43 240.761 389.216 240.883 388.97 240.965C388.724 241.047 388.456 241.088 388.166 241.088C387.887 241.088 387.625 241.048 387.379 240.969C387.136 240.89 386.92 240.776 386.733 240.626C386.545 240.474 386.399 240.288 386.293 240.068C386.188 239.846 386.135 239.592 386.135 239.308H386.948C386.948 239.531 386.997 239.726 387.093 239.893C387.193 240.06 387.333 240.19 387.515 240.284C387.7 240.375 387.917 240.42 388.166 240.42C388.415 240.42 388.628 240.377 388.807 240.292C388.989 240.205 389.128 240.073 389.225 239.897C389.324 239.721 389.374 239.5 389.374 239.233C389.374 238.967 389.318 238.749 389.207 238.579C389.096 238.406 388.938 238.278 388.732 238.196C388.53 238.111 388.292 238.069 388.016 238.069H387.436Z" fill="#333333"/>
<path opacity="0.2" fill-rule="evenodd" clip-rule="evenodd" d="M25.1598 152.673L55.6701 139.208L86.1805 132.475L116.691 161.649L147.201 154.917L177.712 150.429L208.222 163.894L238.732 148.184L269.243 179.603L299.753 168.382L330.263 161.649L360.774 184.091L391.284 150.429V228.974H25.1598V152.673Z" fill="#22A884"/>
<path d="M25.1598 152.673L55.6701 139.208L86.1805 132.475L116.691 161.649L147.201 154.917L177.712 150.429L208.222 163.894L238.732 148.184L269.243 179.603L299.753 168.382L330.263 161.649L360.774 184.091L391.284 150.429" stroke="#22A884" stroke-width="2" stroke-linejoin="round"/>
<path d="M25.1598 155.426C26.6819 155.426 27.6243 154.017 27.6243 152.673C27.6243 151.328 26.6819 149.919 25.1598 149.919C23.6377 149.919 22.6953 151.328 22.6953 152.673C22.6953 154.017 23.6377 155.426 25.1598 155.426Z" fill="white" stroke="#22A884" stroke-width="2"/>
<path d="M55.6701 141.961C57.1922 141.961 58.1346 140.552 58.1346 139.208C58.1346 137.863 57.1922 136.455 55.6701 136.455C54.148 136.455 53.2056 137.863 53.2056 139.208C53.2056 140.552 54.148 141.961 55.6701 141.961Z" fill="white" stroke="#22A884" stroke-width="2"/>
<path d="M86.1805 135.229C87.7026 135.229 88.645 133.82 88.645 132.475C88.645 131.131 87.7026 129.722 86.1805 129.722C84.6584 129.722 83.716 131.131 83.716 132.475C83.716 133.82 84.6584 135.229 86.1805 135.229Z" fill="white" stroke="#22A884" stroke-width="2"/>
<path d="M116.691 164.402C118.213 164.402 119.155 162.994 119.155 161.649C119.155 160.305 118.213 158.896 116.691 158.896C115.169 158.896 114.226 160.305 114.226 161.649C114.226 162.994 115.169 164.402 116.691 164.402Z" fill="white" stroke="#22A884" stroke-width="2"/>
<path d="M147.201 157.67C148.723 157.67 149.666 156.261 149.666 154.917C149.666 153.572 148.723 152.164 147.201 152.164C145.679 152.164 144.737 153.572 144.737 154.917C144.737 156.261 145.679 157.67 147.201 157.67Z" fill="white" stroke="#22A884" stroke-width="2"/>
<path d="M177.712 153.182C179.234 153.182 180.176 151.773 180.176 150.429C180.176 149.084 179.234 147.675 177.712 147.675C176.189 147.675 175.247 149.084 175.247 150.429C175.247 151.773 176.189 153.182 177.712 153.182Z" fill="white" stroke="#22A884" stroke-width="2"/>
<path d="M208.222 166.647C209.744 166.647 210.686 165.238 210.686 163.894C210.686 162.549 209.744 161.14 208.222 161.14C206.7 161.14 205.757 162.549 205.757 163.894C205.757 165.238 206.7 166.647 208.222 166.647Z" fill="white" stroke="#22A884" stroke-width="2"/>
<path d="M238.732 150.938C240.254 150.938 241.197 149.529 241.197 148.184C241.197 146.84 240.254 145.431 238.732 145.431C237.21 145.431 236.268 146.84 236.268 148.184C236.268 149.529 237.21 150.938 238.732 150.938Z" fill="white" stroke="#22A884" stroke-width="2"/>
<path d="M269.243 182.356C270.765 182.356 271.707 180.947 271.707 179.603C271.707 178.258 270.765 176.849 269.243 176.849C267.721 176.849 266.778 178.258 266.778 179.603C266.778 180.947 267.721 182.356 269.243 182.356Z" fill="white" stroke="#22A884" stroke-width="2"/>
<path d="M299.753 171.135C301.275 171.135 302.217 169.726 302.217 168.382C302.217 167.037 301.275 165.629 299.753 165.629C298.231 165.629 297.288 167.037 297.288 168.382C297.288 169.726 298.231 171.135 299.753 171.135Z" fill="white" stroke="#22A884" stroke-width="2"/>
<path d="M330.263 164.402C331.785 164.402 332.728 162.994 332.728 161.649C332.728 160.305 331.785 158.896 330.263 158.896C328.741 158.896 327.799 160.305 327.799 161.649C327.799 162.994 328.741 164.402 330.263 164.402Z" fill="white" stroke="#22A884" stroke-width="2"/>
<path d="M360.774 186.844C362.296 186.844 363.238 185.435 363.238 184.091C363.238 182.746 362.296 181.338 360.774 181.338C359.252 181.338 358.309 182.746 358.309 184.091C358.309 185.435 359.252 186.844 360.774 186.844Z" fill="white" stroke="#22A884" stroke-width="2"/>
<path d="M391.284 153.182C392.806 153.182 393.749 151.773 393.749 150.429C393.749 149.084 392.806 147.675 391.284 147.675C389.762 147.675 388.82 149.084 388.82 150.429C388.82 151.773 389.762 153.182 391.284 153.182Z" fill="white" stroke="#22A884" stroke-width="2"/>
</svg>
