<svg width="22" height="22" viewBox="0 0 22 22" fill="none" xmlns="http://www.w3.org/2000/svg">
<path d="M6 17.75V9.75M11 17.75V6M16 17.75V13.5M18.5 1H3.5C2.83696 1 2.20107 1.26339 1.73223 1.73223C1.26339 2.20107 1 2.83696 1 3.5V18.5C1 19.163 1.26339 19.7989 1.73223 20.2678C2.20107 20.7366 2.83696 21 3.5 21H18.5C19.163 21 19.7989 20.7366 20.2678 20.2678C20.7366 19.7989 21 19.163 21 18.5V3.5C21 2.83696 20.7366 2.20107 20.2678 1.73223C19.7989 1.26339 19.163 1 18.5 1Z" stroke="#626263" stroke-width="1.5" stroke-linecap="round" stroke-linejoin="round"/>
</svg>
