<svg width="18" height="18" viewBox="0 0 18 18" fill="none" xmlns="http://www.w3.org/2000/svg">
<path d="M4.963 12.0708C5.09333 11.9494 5.2657 11.8833 5.44381 11.8864C5.62192 11.8896 5.79186 11.9617 5.91782 12.0877C6.04378 12.2136 6.11593 12.3836 6.11908 12.5617C6.12222 12.7398 6.05611 12.9122 5.93467 13.0425L3.09758 15.8787H5.10417C5.2703 15.8787 5.43081 15.9388 5.55602 16.048C5.68123 16.1572 5.76266 16.3081 5.78525 16.4727L5.79167 16.5662C5.79167 16.7485 5.71923 16.9234 5.5903 17.0523C5.46137 17.1812 5.2865 17.2537 5.10417 17.2537H1.4375C1.25516 17.2537 1.0803 17.1812 0.951364 17.0523C0.822433 16.9234 0.75 16.7485 0.75 16.5662V12.8995C0.75 12.7172 0.822433 12.5423 0.951364 12.4134C1.0803 12.2844 1.25516 12.212 1.4375 12.212C1.61984 12.212 1.7947 12.2844 1.92364 12.4134C2.05257 12.5423 2.125 12.7172 2.125 12.8995V14.907L4.963 12.0708V12.0708ZM12.9004 17.2537C12.7181 17.2537 12.5432 17.1812 12.4143 17.0523C12.2853 16.9234 12.2129 16.7485 12.2129 16.5662C12.2129 16.3838 12.2853 16.209 12.4143 16.08C12.5432 15.9511 12.7181 15.8787 12.9004 15.8787H14.9043L12.0708 13.0425C11.9544 12.9261 11.8836 12.7718 11.8713 12.6076C11.859 12.4434 11.9061 12.2803 12.0039 12.1478L12.0708 12.0708C12.1997 11.9421 12.3745 11.8698 12.5567 11.8698C12.7389 11.8698 12.9136 11.9421 13.0425 12.0708L15.8796 14.9088V12.8995C15.8796 12.7334 15.9398 12.5729 16.049 12.4476C16.1582 12.3224 16.309 12.241 16.4736 12.2184L16.5671 12.212C16.7494 12.212 16.9243 12.2844 17.0532 12.4134C17.1822 12.5423 17.2546 12.7172 17.2546 12.8995V16.5662C17.2546 16.7485 17.1822 16.9234 17.0532 17.0523C16.9243 17.1812 16.7494 17.2537 16.5671 17.2537H12.9004V17.2537ZM5.10417 0.75C5.2865 0.75 5.46137 0.822433 5.5903 0.951364C5.71923 1.0803 5.79167 1.25516 5.79167 1.4375C5.79167 1.61984 5.71923 1.7947 5.5903 1.92364C5.46137 2.05257 5.2865 2.125 5.10417 2.125H3.09942L5.93467 4.96208C6.05096 5.0786 6.12159 5.23299 6.1337 5.39717C6.14581 5.56135 6.0986 5.72442 6.00067 5.85675L5.93375 5.93467C5.80484 6.06341 5.6301 6.13573 5.44792 6.13573C5.26573 6.13573 5.09099 6.06341 4.96208 5.93467L2.125 3.09392V5.10417C2.12499 5.2703 2.06483 5.43081 1.95563 5.55602C1.84643 5.68123 1.69559 5.76266 1.531 5.78525L1.4375 5.79167C1.25516 5.79167 1.0803 5.71923 0.951364 5.5903C0.822433 5.46137 0.75 5.2865 0.75 5.10417V1.4375C0.75 1.25516 0.822433 1.0803 0.951364 0.951364C1.0803 0.822433 1.25516 0.75 1.4375 0.75H5.10417ZM16.5671 0.75C16.7494 0.75 16.9243 0.822433 17.0532 0.951364C17.1822 1.0803 17.2546 1.25516 17.2546 1.4375V5.10417C17.2546 5.2865 17.1822 5.46137 17.0532 5.5903C16.9243 5.71923 16.7494 5.79167 16.5671 5.79167C16.3847 5.79167 16.2099 5.71923 16.0809 5.5903C15.952 5.46137 15.8796 5.2865 15.8796 5.10417V3.09575L13.0425 5.93375C12.9261 6.05018 12.7718 6.12098 12.6076 6.13326C12.4434 6.14554 12.2803 6.09849 12.1478 6.00067L12.0708 5.93375C11.9421 5.80484 11.8698 5.6301 11.8698 5.44792C11.8698 5.26573 11.9421 5.09099 12.0708 4.96208L14.9052 2.125H12.9004C12.7343 2.12499 12.5738 2.06483 12.4486 1.95563C12.3234 1.84643 12.2419 1.69559 12.2193 1.531L12.2129 1.4375C12.2129 1.25516 12.2853 1.0803 12.4143 0.951364C12.5432 0.822433 12.7181 0.75 12.9004 0.75H16.5671V0.75Z" fill="#626263"/>
</svg>
