<svg width="16" height="17" viewBox="0 0 16 17" fill="none" xmlns="http://www.w3.org/2000/svg">
<path d="M14.5 0.5H1.16671C0.945694 0.5 0.733732 0.587797 0.577452 0.744078C0.421172 0.900358 0.333374 1.11232 0.333374 1.33333V3.49167C0.333374 3.9275 0.510874 4.35583 0.819208 4.66417L5.33337 9.17833V15.5C5.33354 15.642 5.36994 15.7816 5.43912 15.9055C5.50831 16.0295 5.608 16.1338 5.72874 16.2085C5.84949 16.2832 5.9873 16.3258 6.12913 16.3323C6.27095 16.3389 6.4121 16.3091 6.53921 16.2458L9.87254 14.5792C10.155 14.4375 10.3334 14.1492 10.3334 13.8333V9.17833L14.8475 4.66417C15.1559 4.35583 15.3334 3.9275 15.3334 3.49167V1.33333C15.3334 1.11232 15.2456 0.900358 15.0893 0.744078C14.933 0.587797 14.7211 0.5 14.5 0.5V0.5ZM8.91088 8.24417C8.83334 8.32142 8.77185 8.41325 8.72995 8.51436C8.68804 8.61548 8.66655 8.72388 8.66671 8.83333V13.3183L7.00004 14.1517V8.83333C7.0002 8.72388 6.97871 8.61548 6.9368 8.51436C6.8949 8.41325 6.83341 8.32142 6.75587 8.24417L2.00004 3.49167V2.16667H13.6675L13.6692 3.48583L8.91088 8.24417V8.24417Z" fill="#626263"/>
</svg>
