<svg width="30" height="30" viewBox="0 0 30 30" fill="none" xmlns="http://www.w3.org/2000/svg">
<path d="M14.8462 27C16.2 27 17.3077 25.8923 17.3077 24.5385H12.3846C12.3846 25.8923 13.4923 27 14.8462 27ZM22.2308 19.6154V13.4615C22.2308 9.68308 20.2246 6.52 16.6923 5.68308V4.84615C16.6923 3.82462 15.8677 3 14.8462 3C13.8246 3 13 3.82462 13 4.84615V5.68308C9.48 6.52 7.46154 9.67077 7.46154 13.4615V19.6154L5 22.0769V23.3077H24.6923V22.0769L22.2308 19.6154ZM19.7692 20.8462H9.92308V13.4615C9.92308 10.4092 11.7815 7.92308 14.8462 7.92308C17.9108 7.92308 19.7692 10.4092 19.7692 13.4615V20.8462Z" fill="white"/>
</svg>
