<svg width="26" height="26" viewBox="0 0 26 26" fill="none" xmlns="http://www.w3.org/2000/svg">
<path fill-rule="evenodd" clip-rule="evenodd" d="M17.6855 16.1406L23.5138 21.969C23.7186 22.174 23.8337 22.452 23.8336 22.7418C23.8335 23.0316 23.7182 23.3095 23.5132 23.5143C23.3082 23.7192 23.0303 23.8342 22.7404 23.8341C22.4506 23.834 22.1727 23.7188 21.9679 23.5138L16.1395 17.6855C14.3972 19.035 12.2063 19.67 10.0123 19.4614C7.81842 19.2529 5.78637 18.2163 4.32956 16.5627C2.87274 14.9091 2.10061 12.7626 2.17022 10.5599C2.23984 8.35718 3.14598 6.26373 4.70431 4.7054C6.26263 3.14708 8.35609 2.24094 10.5588 2.17132C12.7615 2.10171 14.908 2.87384 16.5616 4.33065C18.2152 5.78747 19.2518 7.81952 19.4603 10.0134C19.6689 12.2073 19.0338 14.3983 17.6844 16.1406H17.6855ZM10.8334 17.3334C12.5573 17.3334 14.2106 16.6486 15.4296 15.4296C16.6485 14.2106 17.3334 12.5573 17.3334 10.8334C17.3334 9.10948 16.6485 7.45617 15.4296 6.23719C14.2106 5.0182 12.5573 4.33338 10.8334 4.33338C9.10946 4.33338 7.45616 5.0182 6.23717 6.23719C5.01819 7.45617 4.33337 9.10948 4.33337 10.8334C4.33337 12.5573 5.01819 14.2106 6.23717 15.4296C7.45616 16.6486 9.10946 17.3334 10.8334 17.3334Z" fill="white"/>
</svg>
