<svg width="24" height="22" viewBox="0 0 24 22" fill="none" xmlns="http://www.w3.org/2000/svg">
<path d="M10.8458 1.72788C11.2728 0.701265 12.7272 0.701263 13.1542 1.72788L14.8059 5.69924C15.202 6.65138 16.0974 7.30195 17.1253 7.38436L21.4127 7.72808C22.521 7.81693 22.9704 9.20007 22.126 9.9234L18.8595 12.7216C18.0763 13.3924 17.7343 14.4451 17.9735 15.4481L18.9715 19.6319C19.2295 20.7135 18.0529 21.5683 17.1041 20.9887L13.4334 18.7467C12.5534 18.2092 11.4466 18.2092 10.5666 18.7467L6.89593 20.9887C5.94705 21.5683 4.77049 20.7135 5.02847 19.6319L6.02646 15.4481C6.26573 14.4451 5.92371 13.3924 5.14054 12.7216L1.87398 9.9234C1.02956 9.20007 1.47897 7.81693 2.58728 7.72808L6.8747 7.38436C7.90262 7.30195 8.79805 6.65138 9.19407 5.69924L10.8458 1.72788Z" stroke="#C4C4C4" stroke-width="1.5"/>
</svg>
