<svg width="40" height="40" viewBox="0 0 40 40" fill="none" xmlns="http://www.w3.org/2000/svg">
<rect width="40" height="40" rx="8" fill="white" fill-opacity="0.3"/>
<path d="M14.5 27.425V18.625M20 27.425V14.5M25.5 27.425V22.75M28.25 9H11.75C11.0207 9 10.3212 9.28973 9.80546 9.80546C9.28973 10.3212 9 11.0207 9 11.75V28.25C9 28.9793 9.28973 29.6788 9.80546 30.1945C10.3212 30.7103 11.0207 31 11.75 31H28.25C28.9793 31 29.6788 30.7103 30.1945 30.1945C30.7103 29.6788 31 28.9793 31 28.25V11.75C31 11.0207 30.7103 10.3212 30.1945 9.80546C29.6788 9.28973 28.9793 9 28.25 9Z" stroke="white" stroke-width="2" stroke-linecap="round" stroke-linejoin="round"/>
</svg>
